<svg width="226" height="167" viewBox="0 0 226 167" fill="none" xmlns="http://www.w3.org/2000/svg">
<g filter="url(#filter0_d_353_4519)">
<rect x="21.3229" y="21.3229" width="182.562" height="124.354" rx="14.5521" fill="white" stroke="#D9D9D9" stroke-width="2.64583"/>
<path d="M186.653 75.9484L186.688 75.9099H181.152L177.656 88.0282H177.47L173.456 75.9099H166.878L174.793 95.9088L171.486 102.005V102.152H176.651L186.653 75.9484Z" fill="black"/>
<path d="M125.281 75.9099H119.409V95.8353H125.281V75.9099Z" fill="black"/>
<path d="M165.723 90.8522V82.5272C165.723 77.992 163.046 75.5005 158.325 75.5005C155.312 75.5005 153.234 76.0219 149.44 77.1732L150.48 81.7469C153.937 80.1861 155.459 79.5178 157.058 79.5178C158.99 79.5178 159.847 80.893 159.847 83.0136V83.1606C153.118 84.4239 151.036 85.1307 149.738 86.4325C148.772 87.3983 148.362 88.7736 148.362 90.3728C148.362 94.2011 151.337 96.2447 154.122 96.2447C156.205 96.2447 157.877 95.4644 160.145 93.7532L160.554 95.8353H166.426L165.723 90.8522ZM159.851 91.0027C158.29 91.8565 157.398 92.1925 156.359 92.1925C154.945 92.1925 154.052 91.2616 154.052 89.7779C154.052 89.2215 154.164 88.6616 154.609 88.2172C155.316 87.5103 156.691 86.9889 159.851 86.247V91.0027Z" fill="black"/>
<path d="M139.89 75.5005C137.735 75.5005 136.062 76.3193 134.165 77.8801V75.9099H128.293V102.152H134.165V95.6463C135.282 95.9438 136.321 96.0943 137.584 96.0943C142.826 96.0943 147.547 92.2275 147.547 85.3512C147.547 79.1818 144.128 75.5005 139.89 75.5005ZM136.171 92.4129C135.502 92.4129 134.869 92.3394 134.162 92.1155V81.3374C135.39 80.4836 136.391 80.0742 137.654 80.0742C139.848 80.0742 141.595 81.8203 141.595 85.5402C141.598 90.2958 139.033 92.4129 136.171 92.4129Z" fill="black"/>
<path d="M69.6337 65.6465H44.4557C41.1768 65.6465 38.5208 68.327 38.5208 71.6304V97.0218C38.5208 100.325 41.1768 103.006 44.4557 103.006H69.6337C72.9126 103.006 75.5651 100.325 75.5651 97.0218V71.6304C75.5686 68.3235 72.9126 65.6465 69.6337 65.6465Z" fill="#1677FF"/>
<path d="M69.0214 89.1065C67.5411 88.6061 65.55 87.8398 63.3349 87.0314C64.6647 84.6973 65.7285 82.0413 66.4283 79.1543H59.1252V76.5018H68.0696V75.0216H59.1252V70.5984H55.4753C54.8349 70.5984 54.8349 71.2353 54.8349 71.2353V75.0181H45.7891V76.4983H54.8349V79.1508H47.3638V80.6311H61.8512C61.3228 82.4717 60.6089 84.2039 59.7656 85.7751C55.0659 84.2109 50.0478 82.9442 46.8984 83.7245C44.8827 84.2249 43.5845 85.1173 42.8216 86.0551C39.3223 90.3488 41.8313 96.8716 49.222 96.8716C53.5927 96.8716 57.8024 94.4151 61.0638 90.3663C65.9314 92.7249 75.5652 96.7771 75.5652 96.7771V91.0032C75.5687 91.0032 74.3579 90.9052 69.0214 89.1065ZM48.5326 94.3766C42.7691 94.3766 41.0649 89.7994 43.9134 87.2939C44.8653 86.447 46.6009 86.0341 47.5248 85.9431C50.9472 85.6037 54.1176 86.9194 57.8584 88.7601C55.2304 92.2175 51.8815 94.3766 48.5326 94.3766Z" fill="white"/>
<path d="M99.2244 69.6287H91.3438L82.5359 95.8354H87.9634L89.4506 90.7053H98.7799L100.194 95.8354H107.143L99.2244 69.6287ZM90.6754 86.4291L94.1678 74.3493H94.3148L97.6216 86.4291H90.6754Z" fill="black"/>
<path d="M115.391 68.698H109.52V95.8321H115.391V68.698Z" fill="black"/>
<path d="M118.961 71.1162C118.961 73.0479 120.374 74.3496 122.345 74.3496C124.315 74.3496 125.728 73.0479 125.728 71.1162C125.728 69.2196 124.315 67.8828 122.345 67.8828C120.374 67.8828 118.961 69.2196 118.961 71.1162Z" fill="#1677FF"/>
</g>
<defs>
<filter id="filter0_d_353_4519" x="0" y="0" width="225.208" height="167" filterUnits="userSpaceOnUse" color-interpolation-filters="sRGB">
<feFlood flood-opacity="0" result="BackgroundImageFix"/>
<feColorMatrix in="SourceAlpha" type="matrix" values="0 0 0 0 0 0 0 0 0 0 0 0 0 0 0 0 0 0 127 0" result="hardAlpha"/>
<feOffset/>
<feGaussianBlur stdDeviation="10"/>
<feComposite in2="hardAlpha" operator="out"/>
<feColorMatrix type="matrix" values="0 0 0 0 0 0 0 0 0 0 0 0 0 0 0 0 0 0 0.07 0"/>
<feBlend mode="normal" in2="BackgroundImageFix" result="effect1_dropShadow_353_4519"/>
<feBlend mode="normal" in="SourceGraphic" in2="effect1_dropShadow_353_4519" result="shape"/>
</filter>
</defs>
</svg>
