<svg width="226" height="167" viewBox="0 0 226 167" fill="none" xmlns="http://www.w3.org/2000/svg">
<g filter="url(#filter0_d_353_4444)">
<rect x="21.3229" y="21.3229" width="182.562" height="124.354" rx="14.5521" fill="white" stroke="#D9D9D9" stroke-width="2.64583"/>
<path fill-rule="evenodd" clip-rule="evenodd" d="M119.512 63.0845L110.104 65.1036V57.4759L119.512 55.4941V63.0845ZM81.2793 59.8317L72.1335 61.7761L72.096 91.7263C72.096 97.2602 76.2566 101.336 81.8041 101.336C84.8777 101.336 87.1266 100.775 88.3636 100.102V92.5115C87.1641 92.9976 81.2418 94.7176 81.2418 89.1837V75.9099H88.3636V67.9456H81.2418L81.2793 59.8317ZM59.1274 75.4238C57.1408 75.4238 55.9413 75.9847 55.9413 77.443C55.9413 79.0351 58.0056 79.7355 60.5666 80.6044C64.7415 82.021 70.2365 83.8854 70.2598 90.7916C70.2598 97.4846 64.8997 101.336 57.1033 101.336C53.8798 101.336 50.3564 100.7 46.8705 99.2046V90.3055C50.0191 92.0255 53.9922 93.2968 57.1033 93.2968C59.2023 93.2968 60.7017 92.7359 60.7017 91.0159C60.7017 89.2523 58.4639 88.4462 55.7624 87.473C51.6482 85.9908 46.4582 84.1211 46.4582 77.8916C46.4582 71.2734 51.5184 67.31 59.1274 67.31C62.2385 67.31 65.312 67.796 68.4231 69.0299V77.8169C65.5744 76.2838 61.9761 75.4238 59.1274 75.4238ZM100.021 70.7121L99.4214 67.9451H91.3251V100.662H100.696V78.4894C102.907 75.6103 106.656 76.1338 107.818 76.5451V67.9451C106.618 67.4965 102.233 66.6738 100.021 70.7121ZM110.103 67.9456H119.511V100.663H110.103V67.9456ZM181.396 84.4351C181.396 74.863 176.748 67.31 167.865 67.31C158.944 67.31 153.546 74.863 153.546 84.3603C153.546 95.615 159.918 101.298 169.064 101.298C173.524 101.298 176.898 100.289 179.447 98.868V91.3898C176.898 92.6611 173.974 93.4463 170.263 93.4463C166.628 93.4463 163.404 92.175 162.992 87.7629H181.321C181.321 87.5569 181.334 87.0892 181.35 86.5503L181.35 86.5492C181.371 85.8164 181.396 84.952 181.396 84.4351ZM162.879 80.8831C162.879 76.6579 165.465 74.9005 167.827 74.9005C170.113 74.9005 172.55 76.6579 172.55 80.8831H162.879ZM131.731 70.2265C133.043 69.0299 135.404 67.31 139.077 67.31C145.637 67.31 151.822 73.2178 151.859 84.0612C151.859 95.9142 145.749 101.299 139.04 101.299C135.741 101.299 133.755 99.915 132.405 98.9429L132.368 109.525L122.997 111.506V67.9082H131.243L131.731 70.2265ZM132.405 91.3147C133.305 92.2868 134.617 93.0721 136.828 93.0721C140.277 93.0721 142.601 89.333 142.601 84.3226C142.601 79.4243 140.239 75.6104 136.828 75.6104C134.692 75.6104 133.342 76.3583 132.368 77.4426L132.405 91.3147Z" fill="#6461FC"/>
</g>
<defs>
<filter id="filter0_d_353_4444" x="0" y="0" width="225.208" height="167" filterUnits="userSpaceOnUse" color-interpolation-filters="sRGB">
<feFlood flood-opacity="0" result="BackgroundImageFix"/>
<feColorMatrix in="SourceAlpha" type="matrix" values="0 0 0 0 0 0 0 0 0 0 0 0 0 0 0 0 0 0 127 0" result="hardAlpha"/>
<feOffset/>
<feGaussianBlur stdDeviation="10"/>
<feComposite in2="hardAlpha" operator="out"/>
<feColorMatrix type="matrix" values="0 0 0 0 0 0 0 0 0 0 0 0 0 0 0 0 0 0 0.07 0"/>
<feBlend mode="normal" in2="BackgroundImageFix" result="effect1_dropShadow_353_4444"/>
<feBlend mode="normal" in="SourceGraphic" in2="effect1_dropShadow_353_4444" result="shape"/>
</filter>
</defs>
</svg>
