<?xml version="1.0" encoding="UTF-8" standalone="no"?>
<svg
   width="500"
   height="500"
   viewBox="0 0 499.99999 500"
   version="1.1"
   id="svg4"
   sodipodi:docname="apple-1607620792.svg"
   inkscape:version="1.2.2 (b0a8486, 2022-12-01)"
   xmlns:inkscape="http://www.inkscape.org/namespaces/inkscape"
   xmlns:sodipodi="http://sodipodi.sourceforge.net/DTD/sodipodi-0.dtd"
   xmlns="http://www.w3.org/2000/svg"
   xmlns:svg="http://www.w3.org/2000/svg">
  <defs
     id="defs8" />
  <sodipodi:namedview
     id="namedview6"
     pagecolor="#505050"
     bordercolor="#eeeeee"
     borderopacity="1"
     inkscape:showpageshadow="0"
     inkscape:pageopacity="0"
     inkscape:pagecheckerboard="0"
     inkscape:deskcolor="#505050"
     showgrid="false"
     inkscape:zoom="0.38211486"
     inkscape:cx="163.56339"
     inkscape:cy="253.85038"
     inkscape:window-width="1309"
     inkscape:window-height="456"
     inkscape:window-x="2214"
     inkscape:window-y="74"
     inkscape:window-maximized="0"
     inkscape:current-layer="svg4" />
  <path
     d="m 451.53099,389.72339 a 276.3235,276.3235 0 0 1 -26.92801,48.26892 243.90914,243.90914 0 0 1 -34.62173,41.85748 67.136838,67.136838 0 0 1 -44.51365,19.60066 111.4673,111.4673 0 0 1 -40.4836,-9.80033 119.06943,119.06943 0 0 0 -44.23887,-9.80033 122.91629,122.91629 0 0 0 -45.79594,9.80033 A 122.45833,122.45833 0 0 1 175.65628,500 63.198388,63.198388 0 0 1 129.86035,479.84979 252.88514,252.88514 0 0 1 93.223602,436.52684 299.13904,299.13904 0 0 1 54.938202,360.414 a 278.07291,278.07291 0 0 1 -15.57061,-90.67595 164.86536,164.86536 0 0 1 21.89045,-86.55432 126.94633,126.94633 0 0 1 45.795938,-45.79593 122.45833,122.45833 0 0 1 61.54973,-17.40245 145.44788,145.44788 0 0 1 47.62777,11.08261 154.69866,154.69866 0 0 0 37.82744,11.08262 227.5142,227.5142 0 0 0 41.76589,-13.37242 139.31123,139.31123 0 0 1 56.78696,-9.70873 q 63.1068,5.03755 94.6144,49.82597 c -37.55267,22.80638 -56.23741,54.95512 -55.77945,95.7135 a 105.69701,105.69701 0 0 0 34.62173,79.59333 116.23008,116.23008 0 0 0 34.62172,22.16524 234.42022,234.42022 0 0 1 -9.15918,23.17274 z M 355.35953,9.98351 A 107.07089,107.07089 0 0 1 327.88197,79.9597 c -21.98205,25.73731 -48.63528,40.5752 -77.39513,38.19381 A 77.578311,77.578311 0 0 1 249.8457,108.99432 109.91024,109.91024 0 0 1 278.88032,38.2854 111.83367,111.83367 0 0 1 314.14319,11.44898 105.05587,105.05587 0 0 1 354.80998,0 a 73.740612,73.740612 0 0 1 0.54955,9.98351 z"
     id="path2"
     style="stroke-width:9.15919" />
</svg>
