<?xml version="1.0" encoding="UTF-8" standalone="no"?>
<svg
   width="500"
   height="500"
   viewBox="0 0 499.99999 499.99998"
   version="1.1"
   id="svg36"
   sodipodi:docname="huawei-1607620828.svg"
   inkscape:version="1.2.2 (b0a8486, 2022-12-01)"
   xmlns:inkscape="http://www.inkscape.org/namespaces/inkscape"
   xmlns:sodipodi="http://sodipodi.sourceforge.net/DTD/sodipodi-0.dtd"
   xmlns="http://www.w3.org/2000/svg"
   xmlns:svg="http://www.w3.org/2000/svg">
  <sodipodi:namedview
     id="namedview38"
     pagecolor="#505050"
     bordercolor="#eeeeee"
     borderopacity="1"
     inkscape:showpageshadow="0"
     inkscape:pageopacity="0"
     inkscape:pagecheckerboard="0"
     inkscape:deskcolor="#505050"
     showgrid="false"
     inkscape:zoom="1.3569458"
     inkscape:cx="208.92507"
     inkscape:cy="207.0827"
     inkscape:window-width="1901"
     inkscape:window-height="1006"
     inkscape:window-x="3144"
     inkscape:window-y="347"
     inkscape:window-maximized="0"
     inkscape:current-layer="svg36" />
  <defs
     id="defs28">
    <style
       id="style26">.a{fill:#232527;}.b{fill:#cf0a2c;}</style>
  </defs>
  <g
     transform="matrix(7.5850249,0,0,8.1314035,-127.5724,-159.78208)"
     id="g34">
    <path
       class="a"
       d="m 38.09,71 v 5.7 c 0,1.63 -0.81,2.5 -2.28,2.5 -1.47,0 -2.29,-0.89 -2.29,-2.57 V 71 h -2 v 5.7 c 0,2.82 1.57,4.44 4.31,4.44 2.74,0 4.34,-1.65 4.34,-4.52 V 71 Z m 7.5,0 -4.43,10 h 2.08 l 0.86,-2 0.06,-0.14 h 4.59 l 0.9,2.09 h 2.14 L 47.41,71 v -0.06 z m 12.1,0 -2.27,6.91 L 53.2,71 H 51 l 3.5,10 h 1.68 l 2.32,-6.6 2.28,6.6 h 1.7 L 66,71 H 63.86 L 61.63,77.9 59.36,71 Z m 19.93,0 v 10 h 2 V 71 Z M 20,71 v 10 h 2 v -4.08 h 4.6 V 81 h 2 V 71 h -2 v 4 H 22 v -4 z m 47.63,0 v 10 h 7.58 v -1.84 h -5.59 v -2.49 h 3.71 v -1.83 h -3.71 v -2 H 75 V 71 Z m -21.18,2.49 1.45,3.36 v 0 l 0.1,0.24 h -3.09 l 0.1,-0.24 v 0 z"
       id="path30" />
    <path
       class="b"
       d="m 45.35,19.65 c -0.81,0.07 -3,0.57 -3,0.57 v 0 a 8.5,8.5 0 0 0 -6.47,8 v 1 a 12.27,12.27 0 0 0 0.41,2.66 c 1.65,7.26 9.71,19.24 11.47,21.75 0.12,0.12 0.22,0.08 0.22,0.08 a 0.22,0.22 0 0 0 0.17,-0.23 v 0 C 50.82,26.74 45.34,19.65 45.34,19.65 Z m 8.84,0 c 0,0 -5.51,7.09 -2.83,33.85 v 0 a 0.22,0.22 0 0 0 0.14,0.2 0.23,0.23 0 0 0 0.28,-0.1 v 0 c 1.78,-2.6 9.81,-14.49 11.45,-21.75 0,0 0.89,-3.51 0,-5.9 a 8.63,8.63 0 0 0 -6.14,-5.73 c 0,0 -1.42,-0.36 -2.93,-0.57 z m -25.4,8 c 0,0 -4.69,4.45 -4.93,9.16 v 0 0.72 a 0.86,0.86 0 0 0 0,0.16 8.88,8.88 0 0 0 3.06,6.06 c 4.63,4.52 15.8,10.25 18.39,11.49 a 0.23,0.23 0 0 0 0.25,-0.05 0.21,0.21 0 0 0 0.06,-0.08 V 55 55 A 137.749,137.749 0 0 0 28.79,27.68 Z m 41.95,0 A 138.071,138.071 0 0 0 54,54.9 v 0 a 0.26,0.26 0 0 0 0,0.29 l 0.1,0.05 h 0.1 c 2.67,-1.32 13.75,-7 18.34,-11.43 a 8.93,8.93 0 0 0 3,-6.08 c 0.34,-5.21 -4.9,-10 -4.9,-10 z m 8.72,15.41 c 0,0 -15.8,8.48 -24,14 v 0 a 0.25,0.25 0 0 0 -0.1,0.27 c 0,0 0.08,0.14 0.19,0.14 h 14.28 a 11.2,11.2 0 0 0 3.2,-0.74 10.87,10.87 0 0 0 6,-5.72 11,11 0 0 0 1,-4.5 V 46.4 a 10.67,10.67 0 0 0 -0.54,-3.3 z m -59.4,0 A 11,11 0 0 0 26.43,56.65 11.3,11.3 0 0 0 30,57.5 h 14 a 0.22,0.22 0 0 0 0.18,-0.12 c 0,0 0,0 0,0 V 57.27 A 0.27,0.27 0 0 0 44.1,57.14 v 0 c -8.17,-5.51 -24,-14 -24,-14 z M 43.6,58.86 25,59.51 c 2,3.6 5.41,6.39 9,5.53 2.44,-0.61 8,-4.46 9.79,-5.77 v 0 c 0.14,-0.13 0.09,-0.23 0.09,-0.23 a 0.24,0.24 0 0 0 -0.23,-0.17 z m 12.31,0 v 0 a 0.212,0.212 0 0 0 -0.2,0.14 0.26,0.26 0 0 0 0.07,0.25 v 0 c 1.78,1.27 7.18,5 9.78,5.78 a 4,4 0 0 0 1,0.15 H 67 c 1.74,-0.06 4.77,-0.95 7.53,-5.69 z"
       id="path32" />
  </g>
</svg>
