<?xml version="1.0" encoding="UTF-8"?>
<svg fill="none" viewBox="0 0 570 315" xmlns="http://www.w3.org/2000/svg">
<path d="m370.49 252.72-51.778 30.127c-2.519 1.461-5.31 2.391-8.201 2.734l-24.283 2.843c-7.053 0.843-14.183-0.73-20.226-4.461l-40.636-25.053c-0.53-0.328-0.958-0.797-1.236-1.355-0.279-0.557-0.397-1.182-0.341-1.802 0.056-0.621 0.284-1.214 0.657-1.713 0.374-0.499 0.88-0.884 1.46-1.111l15.335-6.019c2.59-1.009 5.346-1.528 8.127-1.532h55.161l65.961 7.342z" fill="#000"/>
<path d="m138.39 166.24c14.709-11.803 34.984-20.175 52.011-30.642 15.678-9.622 28.561-20.971 44.312-30.544 2.058-1.385 4.338-2.405 6.742-3.015 4.107-0.748 8.344-0.213 12.136 1.532 3.191 1.559 6.132 3.583 8.728 6.006 19.404 16.547 42.29 39.614 61.694 56.161" fill="#fff"/>
<path d="m138.52 166.39c11.388-9.094 24.663-15.517 37.436-22.368 6.607-3.53 13.128-7.195 19.392-11.314 6.509-4.265 12.761-8.91 19.049-13.482 6.289-4.572 12.687-9.193 19.356-13.311 3.273-2.022 6.546-3.812 10.481-3.971 3.743-0.112 7.448 0.772 10.738 2.562 3.086 1.835 5.963 4.001 8.58 6.459 2.611 2.243 5.185 4.523 7.747 6.827 5.467 4.903 10.861 9.916 16.242 14.941 10.738 10.038 21.391 20.187 32.472 29.87 1.226 1.103 2.525 2.206 3.8 3.297 0.208 0.172 0.515-0.123 0.306-0.306-11.253-9.598-21.991-19.783-32.79-29.895-5.504-5.148-11.032-10.296-16.585-15.37-2.672-2.451-5.365-4.858-8.078-7.219-2.55-2.243-5.087-4.535-7.809-6.582-5.54-4.167-13.054-6.5942-19.809-3.971-3.343 1.505-6.526 3.345-9.5 5.491-3.346 2.182-6.631 4.474-9.892 6.802-6.435 4.621-12.748 9.401-19.257 13.924-6.325 4.394-12.872 8.46-19.613 12.183-12.994 7.158-26.576 13.483-38.638 22.197-1.311 0.944-2.611 1.925-3.873 2.942-0.221 0.172 0.086 0.466 0.294 0.294h-0.049z" fill="#000"/>
<path d="m279.34 166.24c-11.891-8.126-26.049-6.937-40.783-13.642-7.502-3.407-15.788-6.484-21.513-10.761-4.964-3.677-7.686-8.139-11.118-12.257-6.534-7.955-15.936-15.26-27.409-21.425-1.499-0.867-3.113-1.519-4.793-1.937-5.749-1.225-11.952 1.128-16.193 3.543-8.029 4.596-14.575 9.805-22.273 14.622-16.769 10.345-59.12 30.544-73.328 41.918l-2.4516 1.79c-0.2043 0.15-0.3526 0.364-0.4214 0.609-0.0688 0.244-0.0543 0.504 0.0414 0.739s0.2669 0.431 0.4867 0.558c0.2198 0.126 0.4756 0.176 0.7268 0.141 47.807-6.362 80.266-2.023 98.727 1.936 16.597 3.543 66.5 21.376 95.809 24.281 0 0 83.012 9.806 109.98 3.028 26.968-6.779 114.15-23.57 151.09-24.735-39.459-12.551-87.032-20.836-154.78-10.369" fill="#0E2722"/>
<path d="m220.19 167.53c33.796-10.136 48.175-19.807 60.96-28.705 7.355-5.111 23.29-10.431 29.235-10.296 3.065 0 16.61 1.802 19.331 2.843 24.516 9.352 13.374 23.644 45.576 34.074" fill="#0E2722"/>
<path d="m463.2 135.9c21.759 0 39.398-17.637 39.398-39.393 0-21.756-17.639-39.393-39.398-39.393-21.758 0-39.397 17.637-39.397 39.393 0 21.756 17.639 39.393 39.397 39.393z" fill="#E2F77E"/>
<path d="m444.2 224.79c13.628-1.826 24.27-6.329 23.77-10.06-0.5-3.73-11.952-5.274-25.58-3.449s-24.271 6.329-23.771 10.06c0.5 3.73 11.952 5.274 25.581 3.449z" fill="#000"/>
<path d="m460.49 174.88h15.273v-1.679-8.8c0.04-1.794 0.683-3.521 1.827-4.903 0.603-0.792 1.398-1.417 2.309-1.818s1.909-0.564 2.901-0.474c0.081-0.752 0.216-1.498 0.404-2.231 0.098-0.306 0.503-0.723 0.772-0.723 0.564 0 0.625 0.502 0.552 0.993 0 0.135 0 0.269-0.086 0.404-0.224 0.529-0.243 1.122-0.053 1.664 0.191 0.542 0.577 0.994 1.083 1.266 0.909 0.675 1.636 1.567 2.113 2.594 0.477 1.028 0.691 2.158 0.62 3.289 0 3.922-0.147 7.844-0.22 11.779-0.074 3.934-0.172 8.187-0.245 12.256 0 1.447-0.221 1.631-1.704 1.631h-8.581c-0.251-0.024-0.504 0.03-0.723 0.155-0.22 0.125-0.395 0.315-0.503 0.543-0.118 0.313-0.306 0.594-0.551 0.821-0.273 0.142-0.567 0.237-0.871 0.282-0.125-0.302-0.212-0.619-0.257-0.943 0-0.221 0.196-0.442 0.306-0.675h-13.974c0.159 7.82 0.319 15.505 0.478 23.141l4.18 0.773c0.248 0.015 0.487 0.091 0.699 0.22 0.368 0.331 0.846 0.674 0.956 1.103 0.159 0.613-0.429 0.944-0.944 1.054-1.658 0.426-3.34 0.749-5.038 0.969-6.639 0.596-13.313 0.702-19.968 0.318-3.224-0.159-6.436-0.613-9.635-0.968-0.608-0.069-1.197-0.247-1.741-0.527-0.404-0.233-0.944-0.711-0.931-1.066 0.058-0.238 0.174-0.458 0.336-0.642 0.162-0.183 0.366-0.325 0.595-0.412 1.032-0.305 2.085-0.53 3.151-0.675 0.907-0.147 1.814-0.232 2.831-0.355v-0.907c0-9.082-0.135-18.152-0.171-27.222 0.024-0.252-0.031-0.504-0.156-0.724-0.125-0.219-0.315-0.395-0.543-0.502-0.347-0.176-0.665-0.403-0.944-0.674-0.094-0.115-0.16-0.25-0.192-0.395s-0.029-0.295 8e-3 -0.439c0.111-0.102 0.243-0.179 0.387-0.223 0.145-0.045 0.297-0.057 0.447-0.034 0.319 0.099 0.621 0.248 0.894 0.441v-9.989h-4.204l-18.583-0.135c-1.312 0-1.508-0.221-1.533-1.557l-0.33-17.159c-0.011-0.152-0.032-0.304-0.062-0.454-0.797 0.527-1.532 0.993-2.231 1.508-0.429 0.319-0.833 0.539-1.226 0-0.392-0.539-0.134-0.895 0.319-1.226 0.834-0.539 1.655-1.115 2.525-1.593 0.223-0.109 0.404-0.288 0.514-0.509 0.111-0.222 0.146-0.473 0.099-0.717-0.073-1.373-0.159-2.758-0.11-4.143 0.018-2.076 0.86-4.06 2.341-5.515 0.496-0.517 1.09-0.928 1.749-1.208 0.658-0.281 1.366-0.426 2.082-0.426s1.424 0.145 2.082 0.426c0.658 0.28 1.253 0.691 1.748 1.208 0.764 0.729 1.374 1.604 1.795 2.572s0.644 2.01 0.657 3.066v9.536 0.931h5.026c-0.245-1.225-0.478-2.451-0.723-3.591-0.098-0.49-0.16-1.005 0.453-1.14s0.797 0.368 0.895 0.846c0.245 1.128 0.454 2.28 0.723 3.407 0 0.196 0.307 0.491 0.478 0.503h5.296v-3.187c0-6.251-0.123-12.502-0.135-18.753-0.011-2.676 0.784-5.294 2.28-7.513 0.161-0.202 0.258-0.448 0.28-0.705 0.021-0.257-0.033-0.515-0.157-0.742-0.28-0.509-0.49-1.053-0.626-1.617-0.061-0.295 0.209-0.65 0.319-0.969 0.319 0.147 0.748 0.221 0.907 0.478 0.293 0.518 0.531 1.064 0.711 1.63l0.552-0.441c1.762-1.61 4.021-2.572 6.403-2.726 2.382-0.153 4.746 0.51 6.701 1.88 1.92 1.238 3.523 2.908 4.681 4.877s1.838 4.182 1.987 6.461c0.405 4.67 0.38 9.389 0.539 14.083v1.152c0.589-0.711 1.018-1.225 1.459-1.728s0.723-0.735 1.226-0.319c0.503 0.417 0.172 0.846-0.147 1.226-0.674 0.797-1.361 1.593-1.998 2.451-0.222 0.272-0.355 0.606-0.38 0.956 0.122 6.754 0.282 13.483 0.429 20.249 0.049 0.367 0.073 0.637 0.098 0.931zm-23.352 39.161h0.846c7.024-0.111 14.048-0.233 21.072-0.319 0.723 0 0.796-0.343 0.784-0.919-0.061-4.572-0.098-9.132-0.184-13.691 0-2.905-0.11-5.81-0.233-8.715-0.061-1.409-0.11-1.446 1.312-1.471 4.609-0.061 9.23-0.147 13.852-0.147 0.403 0.036 0.807-0.054 1.156-0.259 0.349-0.204 0.626-0.512 0.793-0.88 0.637-1.226 1.409-2.317 2.133-3.469 0.257-0.405 0.6-0.711 1.091-0.417 0.49 0.294 0.318 0.76 0.085 1.164l-0.527 0.846-1.753 2.856h8.789v-0.699c0.062-3.787 0.111-7.574 0.184-11.374 0.074-3.8 0.209-7.673 0.307-11.521 0.095-1.774-0.468-3.519-1.582-4.903-0.413-0.438-0.855-0.847-1.323-1.226-0.197 1.152-0.307 2.084-0.54 2.991-0.061 0.245-0.49 0.404-0.748 0.601-0.183-0.27-0.392-0.54-0.551-0.822 0-0.098 0-0.269 0.061-0.404 0.123-0.919 0.258-1.826 0.392-2.819-0.687-0.069-1.381 0.03-2.021 0.288-0.641 0.258-1.209 0.668-1.656 1.195-1.224 1.383-1.877 3.179-1.826 5.025v9.879c0 1.091-0.197 1.324-1.3 1.336h-15.788c-0.662 0-0.92-0.282-0.932-0.968-0.098-6.521-0.245-13.054-0.368-19.611 0-0.184 0-0.368-0.073-0.748-0.298 0.423-0.643 0.81-1.03 1.152-0.318 0.153-0.664 0.241-1.017 0.258 0-0.368-0.16-0.834 0-1.103 0.414-0.619 0.886-1.198 1.409-1.729 0.209-0.216 0.369-0.475 0.47-0.758 0.102-0.283 0.142-0.584 0.119-0.884-0.184-5.086-0.258-10.185-0.54-15.26-0.08-1.972-0.585-3.904-1.48-5.664-0.895-1.759-2.158-3.306-3.705-4.533-1.784-1.58-4.109-2.411-6.491-2.32-2.381 0.091-4.636 1.098-6.294 2.81-0.162 0.124-0.274 0.303-0.315 0.504-0.04 0.201-7e-3 0.409 0.095 0.587 0.306 0.674 0.563 1.373 0.833 2.071 0.159 0.429 0.294 0.907-0.245 1.152-0.539 0.246-0.858-0.171-1.054-0.637l-0.699-1.679h-0.306c-0.564 1.25-1.007 2.551-1.324 3.885-0.248 2.075-0.366 4.162-0.356 6.251-0.061 2.709 0 5.418 0 8.126 0 3.432 0.111 6.864 0.16 10.296 0 0.907-0.27 1.165-1.226 1.226h-5.59c0.167 0.652 0.286 1.316 0.356 1.985 0 0.307-0.307 0.613-0.466 0.92-0.282-0.209-0.687-0.356-0.809-0.638-0.186-0.461-0.298-0.949-0.331-1.446-0.074-0.625-0.331-0.87-1.005-0.846h-4.732c-0.968 0-1.226-0.257-1.226-1.225v-9.879c0.03-1.475-0.357-2.927-1.115-4.192-1.998-3.309-5.749-3.248-7.698 0.098-1.349 2.316-0.846 4.78-0.785 7.354 0.726-0.443 1.479-0.84 2.256-1.189 0.176-0.06 0.364-0.079 0.548-0.056 0.185 0.024 0.362 0.089 0.518 0.191 0.368 0.392 0 0.76-0.368 0.993-0.747 0.465-1.483 0.968-2.255 1.397-0.233 0.099-0.426 0.274-0.546 0.497s-0.161 0.48-0.116 0.729c0.122 5.785 0.237 11.566 0.343 17.343 0 0.159 0.061 0.306 0.098 0.515h3.923l19.171 0.184c1.226 0 1.226 0 1.226 1.225v10.541c-4e-3 0.346 0.109 0.682 0.319 0.956 0.601 0.638 1.287 1.226 1.924 1.814 0.509 0.469 0.984 0.973 1.422 1.508 0.073 0.131 0.112 0.279 0.112 0.429s-0.039 0.298-0.112 0.429c-0.13 0.077-0.276 0.123-0.428 0.134-0.151 0.011-0.302-0.014-0.442-0.073-0.294-0.122-0.49-0.429-0.735-0.662l-1.9-1.801-0.013 28.215z" fill="#000"/>
<path d="m437.14 214.04v-28.265l1.9 1.802c0.245 0.233 0.441 0.54 0.735 0.662 0.14 0.059 0.292 0.084 0.443 0.073s0.297-0.057 0.428-0.134c0.073-0.131 0.111-0.279 0.111-0.429s-0.038-0.298-0.111-0.429c-0.439-0.535-0.914-1.039-1.422-1.508-0.638-0.613-1.324-1.225-1.925-1.814-0.21-0.274-0.322-0.61-0.319-0.956v-10.541c0-1.225 0-1.225-1.225-1.225l-19.172-0.184h-3.923c0-0.209-0.085-0.356-0.098-0.515-0.106-5.785-0.22-11.566-0.343-17.343-0.045-0.249-4e-3 -0.506 0.116-0.729 0.121-0.223 0.313-0.398 0.546-0.497 0.772-0.429 1.508-0.932 2.256-1.397 0.38-0.233 0.735-0.601 0.367-0.993-0.156-0.102-0.333-0.167-0.517-0.191-0.185-0.023-0.373-4e-3 -0.549 0.056-0.758 0.391-1.491 0.829-2.194 1.312-0.062-2.587-0.564-5.05 0.784-7.355 1.949-3.346 5.7-3.407 7.698-0.098 0.759 1.265 1.145 2.718 1.116 4.192v9.879c0 0.932 0.208 1.165 1.226 1.226 1.581 0 3.15 0.061 4.731 0 0.674 0 0.932 0.221 1.005 0.846 0.033 0.496 0.145 0.984 0.331 1.446 0.123 0.282 0.527 0.429 0.809 0.637 0.16-0.306 0.478-0.613 0.466-0.919-0.069-0.67-0.188-1.333-0.355-1.986h5.589c0.92 0 1.226-0.269 1.226-1.225 0-3.432-0.135-6.864-0.159-10.296v-8.126c-0.011-2.089 0.108-4.177 0.355-6.251 0.318-1.334 0.761-2.635 1.324-3.886h0.307l0.698 1.68c0.196 0.465 0.466 0.894 1.054 0.637 0.589-0.258 0.405-0.723 0.246-1.152-0.27-0.699-0.527-1.398-0.834-2.072-0.101-0.177-0.135-0.386-0.094-0.586 0.04-0.201 0.152-0.38 0.315-0.505 1.658-1.712 3.912-2.718 6.294-2.81 2.382-0.091 4.707 0.74 6.491 2.32 1.546 1.228 2.81 2.774 3.704 4.534 0.895 1.76 1.4 3.691 1.481 5.664 0.282 5.074 0.356 10.173 0.539 15.26 0.024 0.299-0.017 0.601-0.118 0.884-0.102 0.283-0.262 0.541-0.47 0.758-0.523 0.531-0.995 1.109-1.41 1.728-0.159 0.27 0 0.736 0 1.103 0.353-0.017 0.699-0.104 1.018-0.257 0.386-0.343 0.732-0.73 1.029-1.152 0 0.38 0.062 0.564 0.074 0.747 0.123 6.521 0.27 13.054 0.368 19.611 0 0.687 0.269 0.969 0.931 0.969h15.85c1.103 0 1.299-0.245 1.299-1.336v-9.879c-0.05-1.846 0.603-3.643 1.827-5.026 0.447-0.526 1.015-0.936 1.656-1.194 0.64-0.259 1.334-0.358 2.021-0.289-0.135 0.993-0.269 1.9-0.392 2.819 0 0.135-0.11 0.307-0.061 0.405 0.159 0.282 0.367 0.551 0.551 0.821 0.258-0.196 0.687-0.355 0.748-0.601 0.233-0.907 0.343-1.838 0.539-2.99 0.469 0.378 0.911 0.788 1.324 1.225 1.113 1.384 1.677 3.13 1.582 4.903-0.098 3.849-0.221 7.685-0.307 11.522-0.086 3.836-0.122 7.587-0.184 11.374v0.699h-8.789l1.618-2.881 0.527-0.845c0.233-0.405 0.417-0.858-0.085-1.165-0.503-0.306-0.834 0-1.091 0.417-0.724 1.152-1.496 2.28-2.133 3.469-0.167 0.368-0.444 0.676-0.793 0.88-0.349 0.205-0.753 0.295-1.156 0.259-4.622 0-9.243 0.086-13.852 0.147-1.422 0-1.373 1e-3 -1.312 1.471 0.123 2.905 0.184 5.81 0.233 8.715 0.086 4.559 0.123 9.119 0.184 13.691 0 0.576-0.061 0.907-0.784 0.919-7.024 0.086-14.048 0.208-21.072 0.319-0.196 0-0.343-0.025-0.821-0.049zm9.708-63.466c0.27 0.441 0.491 0.882 0.785 1.226 0.184 0.321 0.448 0.589 0.767 0.778 0.318 0.188 0.68 0.291 1.051 0.299 0.37 7e-3 0.736-0.081 1.062-0.257 0.325-0.176 0.6-0.433 0.797-0.747 0.445-0.597 0.796-1.258 1.042-1.961 0.718-2.048 0.85-4.255 0.38-6.374-0.215-1.1-0.631-2.151-1.226-3.1-0.175-0.297-0.422-0.544-0.718-0.719-0.297-0.176-0.633-0.272-0.977-0.282s-0.685 0.068-0.991 0.225c-0.306 0.158-0.567 0.391-0.758 0.677-0.333 0.391-0.644 0.801-0.932 1.226-0.317-0.533-0.669-1.045-1.054-1.532-0.188-0.244-0.429-0.442-0.705-0.578-0.277-0.136-0.581-0.207-0.889-0.207s-0.611 0.071-0.888 0.207c-0.276 0.136-0.517 0.334-0.705 0.578-0.453 0.483-0.814 1.043-1.067 1.655-0.979 2.326-1.173 4.908-0.551 7.354 0.226 1.012 0.642 1.973 1.226 2.831 0.188 0.271 0.439 0.492 0.732 0.644 0.292 0.153 0.617 0.233 0.947 0.233s0.655-0.08 0.947-0.233c0.292-0.152 0.544-0.373 0.732-0.644 0.353-0.416 0.684-0.85 0.993-1.299zm-4.977 53.109c0.135 0.134 0.417 0.563 0.527 0.514 0.331-0.11 0.773-0.38 0.846-0.661 0.601-2.182 1.14-4.376 1.667-6.57 0.111-0.454 0.209-1.005-0.453-1.14s-0.772 0.368-0.895 0.846c-0.527 2.108-1.066 4.216-1.594 6.337-0.036 0.159-0.049 0.318-0.098 0.674zm3.8-29.601c-0.035-0.187-0.085-0.371-0.147-0.551-0.858-2.121-1.728-4.229-2.611-6.349-0.046-0.159-0.14-0.301-0.269-0.405-0.208-0.12-0.451-0.163-0.687-0.122-0.1 0.058-0.186 0.138-0.252 0.233-0.065 0.095-0.109 0.204-0.128 0.318 0.01 0.306 0.08 0.606 0.209 0.883 0.686 1.679 1.385 3.371 2.083 5.05 0.128 0.431 0.314 0.843 0.552 1.225 0.093 0.108 0.211 0.191 0.344 0.242 0.132 0.051 0.275 0.069 0.416 0.053 0.208-0.086 0.356-0.417 0.49-0.613v0.036zm8.287 10.284c-0.16-0.172-0.319-0.503-0.539-0.539-0.14-0.013-0.281 9e-3 -0.409 0.065-0.129 0.055-0.241 0.143-0.327 0.253-0.899 2.256-1.749 4.527-2.55 6.815 1e-3 0.15 0.039 0.297 0.112 0.428s0.178 0.241 0.305 0.32c0.208 0.086 0.564-0.172 0.821-0.319 0.258-0.147 0.123-0.245 0.172-0.368 0.735-1.961 1.459-3.934 2.182-5.895 0.091-0.249 0.169-0.503 0.233-0.76zm0.515-21.082c-0.147-0.147-0.393-0.6-0.564-0.564-0.173 0.037-0.336 0.111-0.478 0.217s-0.259 0.241-0.343 0.396c-0.613 1.912-1.165 3.849-1.741 5.785-0.147 0.478-0.258 0.981 0.368 1.226 0.625 0.245 0.821-0.294 0.956-0.772 0.564-1.839 1.115-3.677 1.667-5.54 0.037-0.221 0.061-0.392 0.135-0.748zm-24.86 5.553 0.858-0.319 4.364-1.802c0.43-0.128 0.842-0.309 1.226-0.539 0.119-0.096 0.213-0.221 0.273-0.362s0.084-0.294 0.07-0.447c-0.061-0.208-0.478-0.343-0.76-0.405-0.282-0.061-0.429 0.098-0.625 0.172l-5.21 2.157c-0.212 0.063-0.405 0.176-0.563 0.331-0.146 0.216-0.203 0.479-0.16 0.736 0.037 0.208 0.343 0.33 0.527 0.478zm22.249 33.277c-0.736 0-1.005 0.49-0.699 1.152 0.87 1.851 1.741 3.677 2.685 5.503 0.134 0.258 0.649 0.319 0.98 0.466 0.086-0.331 0.331-0.748 0.221-1.005-0.846-1.888-1.753-3.751-2.66-5.601-0.14-0.205-0.319-0.38-0.527-0.515zm-34.384-34.319c0.135 0.159 0.306 0.551 0.588 0.637 0.491 0.159 0.736-0.221 0.809-0.686 0.319-2.047 0.662-4.094 0.92-6.129 0-0.269-0.319-0.6-0.503-0.894-0.27 0.22-0.735 0.392-0.772 0.649-0.38 2.023-0.687 4.094-1.042 6.398v0.025zm34.482-39.541c-0.147-0.159-0.392-0.564-0.552-0.539-0.174 0.031-0.339 0.097-0.487 0.194-0.147 0.096-0.274 0.222-0.371 0.37-0.797 1.789-1.569 3.591-2.255 5.417-0.05 0.194-0.051 0.397-4e-3 0.591 0.047 0.195 0.141 0.375 0.273 0.525 0.478 0.306 0.797-0.135 0.981-0.564 0.748-1.79 1.483-3.567 2.219-5.356 0.061-0.196 0.098-0.331 0.196-0.662v0.024zm12.258 51.81c-0.245 0.147-0.552 0.245-0.564 0.38-0.068 0.335-0.025 0.684 0.123 0.993 1.005 1.544 2.059 3.051 3.113 4.571 0.258 0.38 0.601 0.711 1.091 0.38s0.319-0.772 0.061-1.225l-3.138-4.56c-0.205-0.21-0.43-0.399-0.674-0.564l-0.012 0.025zm16.646-9.573c-0.208 0.184-0.551 0.356-0.551 0.515 9e-3 0.339 0.144 0.663 0.38 0.907 1.226 1.042 2.537 2.035 3.812 3.04 0.392 0.306 0.846 0.551 1.226 0 0.38-0.552 0-0.871-0.393-1.165-1.225-0.993-2.451-1.985-3.763-2.966-0.221-0.14-0.455-0.259-0.698-0.355l-0.013 0.024z" fill="#fff"/>
<path d="m446.84 150.58c-0.299 0.465-0.623 0.915-0.968 1.348-0.189 0.271-0.44 0.492-0.732 0.644-0.292 0.153-0.617 0.233-0.947 0.233s-0.655-0.08-0.947-0.233c-0.293-0.152-0.544-0.373-0.733-0.644-0.583-0.858-0.999-1.819-1.225-2.831-0.622-2.446-0.428-5.028 0.551-7.354 0.253-0.612 0.614-1.172 1.067-1.655 0.187-0.244 0.429-0.442 0.705-0.578s0.58-0.207 0.888-0.207 0.612 0.071 0.888 0.207c0.277 0.136 0.518 0.334 0.706 0.578 0.385 0.487 0.737 0.999 1.054 1.532 0.287-0.425 0.598-0.835 0.932-1.226 0.191-0.286 0.452-0.519 0.758-0.676 0.306-0.158 0.647-0.236 0.991-0.226s0.68 0.107 0.977 0.282c0.296 0.175 0.543 0.422 0.718 0.719 0.595 0.949 1.011 2 1.226 3.101 0.47 2.118 0.338 4.325-0.38 6.373-0.246 0.703-0.597 1.364-1.042 1.961-0.197 0.314-0.472 0.571-0.798 0.747-0.325 0.176-0.691 0.264-1.062 0.257-0.37-7e-3 -0.732-0.111-1.05-0.299-0.319-0.189-0.583-0.457-0.767-0.778-0.319-0.393-0.54-0.834-0.81-1.275zm-0.919-2.329 0.282-0.073c0.08-1.339 0.08-2.682 0-4.021-0.143-0.977-0.454-1.923-0.919-2.794-0.417-0.821-1.091-0.821-1.618 0-0.844 1.372-1.27 2.961-1.226 4.572 1.826-0.295 2.66 0.992 3.481 2.377v-0.061zm5.296 0.159h0.22c0-1.47 0.086-2.953 0-4.424-0.11-0.819-0.376-1.61-0.784-2.329-0.478-0.932-1.226-0.944-1.765 0-0.846 1.327-1.234 2.894-1.104 4.461 1.827-0.257 2.636 0.969 3.433 2.292z" fill="#000"/>
<path d="m441.87 203.68c0-0.356 0-0.515 0.098-0.674 0.527-2.121 1.067-4.229 1.594-6.337 0.122-0.478 0.282-0.969 0.895-0.846s0.564 0.686 0.453 1.14c-0.527 2.194-1.066 4.388-1.667 6.57-0.073 0.281-0.515 0.551-0.846 0.661-0.11 0.049-0.392-0.38-0.527-0.514z" fill="#000"/>
<path d="m445.67 174.05c-0.134 0.159-0.281 0.49-0.49 0.539-0.141 0.017-0.284-1e-3 -0.416-0.053-0.133-0.051-0.251-0.134-0.344-0.241-0.238-0.382-0.423-0.794-0.551-1.226-0.699-1.679-1.398-3.37-2.084-5.05-0.129-0.277-0.199-0.577-0.209-0.882 0.019-0.114 0.063-0.223 0.128-0.318 0.066-0.096 0.152-0.175 0.252-0.234 0.236-0.041 0.479 2e-3 0.687 0.123 0.129 0.104 0.223 0.245 0.269 0.404 0.883 2.121 1.753 4.229 2.611 6.349 0.064 0.193 0.113 0.389 0.147 0.589z" fill="#000"/>
<path d="m453.95 184.37c-0.064 0.257-0.141 0.511-0.232 0.76-0.724 1.961-1.447 3.934-2.182 5.895 0 0.123-0.074 0.307-0.172 0.368s-0.613 0.405-0.821 0.319c-0.128-0.079-0.233-0.189-0.305-0.32-0.073-0.131-0.112-0.278-0.112-0.428 0.817-2.296 1.667-4.568 2.55-6.815 0.086-0.11 0.198-0.197 0.327-0.253 0.128-0.056 0.269-0.078 0.408-0.065 0.221 0.024 0.38 0.367 0.539 0.539z" fill="#000"/>
<path d="m454.47 163.28c-0.074 0.356-0.098 0.527-0.135 0.687-0.552 1.85-1.103 3.677-1.667 5.54-0.135 0.478-0.343 0.956-0.956 0.772s-0.515-0.687-0.368-1.226c0.576-1.936 1.128-3.873 1.741-5.785 0.084-0.155 0.201-0.291 0.343-0.396 0.142-0.106 0.305-0.18 0.478-0.217 0.172 0.025 0.417 0.478 0.564 0.625z" fill="#000"/>
<path d="m429.61 168.84c-0.183-0.148-0.49-0.27-0.551-0.478-0.043-0.257 0.014-0.52 0.159-0.736 0.158-0.155 0.352-0.268 0.564-0.331l5.21-2.157c0.196-0.074 0.429-0.221 0.625-0.172s0.699 0.197 0.76 0.405c0.014 0.153-0.01 0.306-0.07 0.447s-0.154 0.266-0.273 0.362c-0.385 0.23-0.797 0.411-1.226 0.539l-4.364 1.802-0.834 0.319z" fill="#000"/>
<path d="m451.86 202.12c0.208 0.135 0.388 0.31 0.528 0.515 0.907 1.85 1.814 3.677 2.66 5.601 0.11 0.257-0.135 0.674-0.221 1.005-0.331-0.147-0.846-0.208-0.981-0.466-0.944-1.802-1.814-3.677-2.684-5.503-0.307-0.662-0.062-1.177 0.698-1.152z" fill="#000"/>
<path d="m417.47 167.77c0.355-2.304 0.662-4.375 1.042-6.447 0-0.257 0.502-0.429 0.772-0.649 0.184 0.294 0.539 0.625 0.502 0.894-0.257 2.059-0.6 4.106-0.919 6.129-0.074 0.465-0.319 0.845-0.809 0.686-0.282-0.061-0.454-0.466-0.588-0.613z" fill="#000"/>
<path d="m451.96 128.23c-0.098 0.331-0.135 0.49-0.196 0.637-0.735 1.79-1.471 3.567-2.219 5.356-0.183 0.429-0.502 0.871-0.98 0.564-0.133-0.15-0.227-0.33-0.274-0.524s-0.045-0.397 4e-3 -0.591c0.686-1.827 1.459-3.677 2.255-5.418 0.098-0.147 0.224-0.273 0.371-0.37 0.148-0.097 0.314-0.163 0.488-0.194 0.159-0.024 0.404 0.38 0.551 0.54z" fill="#000"/>
<path d="m464.23 180.04c0.249 0.176 0.48 0.377 0.686 0.601l3.138 4.559c0.258 0.393 0.442 0.822-0.061 1.226-0.502 0.405-0.833 0-1.091-0.38-1.054-1.52-2.108-3.027-3.113-4.572-0.148-0.309-0.191-0.657-0.123-0.992 0.012-0.197 0.319-0.307 0.564-0.442z" fill="#000"/>
<path d="m480.87 170.47c0.249 0.103 0.487 0.23 0.711 0.38 1.226 0.98 2.513 1.973 3.763 2.966 0.38 0.294 0.785 0.649 0.392 1.164-0.392 0.515-0.833 0.258-1.225 0-1.226-1.005-2.562-1.998-3.813-3.039-0.235-0.245-0.371-0.568-0.38-0.907 0-0.209 0.344-0.38 0.552-0.564z" fill="#000"/>
<path d="m445.92 148.31c-0.821-1.323-1.655-2.61-3.579-2.377-0.044-1.611 0.382-3.2 1.226-4.572 0.527-0.76 1.225-0.76 1.618 0 0.465 0.871 0.776 1.817 0.919 2.794 0.08 1.339 0.08 2.682 0 4.021l-0.184 0.134z" fill="#fff"/>
<path d="m451.22 148.4c-0.797-1.299-1.606-2.586-3.469-2.377-0.13-1.568 0.258-3.135 1.103-4.462 0.564-0.895 1.287-0.882 1.766 0 0.407 0.719 0.674 1.51 0.784 2.329 0.123 1.471 0 2.954 0 4.425l-0.184 0.085z" fill="#fff"/>
<path d="m126.94 184.18c1.373-2.022 2.648-4.008 4.02-5.908 1.884-2.433 4.158-4.537 6.73-6.226 0.092-0.071 0.19-0.133 0.294-0.184 0.393-0.208 0.883-0.564 1.226 0 0.098 0.184-0.27 0.76-0.552 0.956-2.159 1.427-4.125 3.129-5.847 5.062-0.171 0.221-0.331 0.454-0.502 0.699 1.299 0.404 1.544 0.686 1.079 1.924-0.699 1.912-1.582 3.751-2.379 5.626-0.404 0.931-0.809 1.863-1.225 2.794l0.245 0.135c0.392-0.453 0.809-0.907 1.226-1.372 1.042-1.226 2.071-2.525 3.125-3.776 0.27-0.33 0.405-0.551 0.074-0.956-0.699-0.821-0.711-1.225 0-2.034 5.099-6.129 11.032-11.031 18.828-13.336 0.628-0.193 1.28-0.296 1.937-0.306 0.245 0 0.49 0.343 0.748 0.527-0.221 0.184-0.405 0.49-0.638 0.552-5.951 1.311-11.389 4.336-15.641 8.702-1.226 1.226-2.451 2.451-3.604 3.677-0.273 0.256-0.508 0.549-0.698 0.87-0.049 0.104-0.074 0.217-0.074 0.331s0.025 0.227 0.074 0.331c0 0.074 0.441 0.061 0.588 0 0.429-0.282 0.784-0.662 1.226-0.968 1.667-1.226 3.358-2.452 5.026-3.763 0.429-0.319 0.809-0.711 1.225-1.066 0.124-0.117 0.259-0.22 0.405-0.307l4.805-2.255c1.046-0.49 2.088-0.968 3.126-1.434 1.291-0.6 2.758-0.7 4.119-0.282 0.491 0.102 1.003 0.028 1.446-0.208 1.491-0.837 3.201-1.2 4.903-1.042 4.751 0.505 9.37 1.872 13.631 4.032 0.394 0.153 0.806 0.256 1.226 0.307 1.165 0.171 2.329 0.282 3.481 0.49 0.221 0 0.38 0.404 0.552 0.613-0.252 0.131-0.527 0.214-0.809 0.245-0.552 0-1.103-0.221-1.667-0.331-0.135 1.226-0.589 1.52-1.312 0.919-1.409-1.152-2.991-0.98-4.584-0.944l-4.352 0.148 0.687 0.588c1.225 1.054 2.451 2.12 3.677 3.162 0.196 0.159 0.564 0.356 0.723 0.27 2.292-1.067 4.376-0.172 6.485 0.613 3.617 1.13 7.092 2.672 10.358 4.596 1.226 0.809 1.581 1.434 1.226 2.451-0.099 0.294-0.454 0.491-0.687 0.723-0.12-0.274-0.187-0.57-0.196-0.87 0.076-0.251 0.059-0.521-0.046-0.762-0.106-0.24-0.294-0.435-0.53-0.549-1.9-1.005-3.812-1.974-5.737-2.93-0.213-0.08-0.448-0.08-0.662 0-1.226 0.552-2.451 1.128-3.677 1.716-0.785 0.368-1.52 0.821-2.305 1.226-0.478 0.208-0.551 0.478-0.257 0.846 0.294 0.367 0.637 0.956 1.078 1.14 2.567 0.956 4.784 2.665 6.362 4.902 0.143 0.179 0.298 0.347 0.466 0.503 0.08 0.05 0.167 0.087 0.258 0.11 0.688-0.61 1.335-1.265 1.936-1.961 0.552-0.748 1.398-0.515 2.072-0.797 0.074 0 0.356 0.454 0.576 0.748 0.113-0.104 0.241-0.191 0.38-0.257 0.266-0.072 0.536-0.126 0.809-0.16-0.061 0.282 0 0.638-0.196 0.809-1.079 1.226-2.17 2.378-3.297 3.518-0.348 0.292-0.595 0.685-0.707 1.125s-0.084 0.904 0.081 1.326c0.515 1.814 0.859 3.677 1.288 5.565 0.171-0.018 0.343-0.018 0.514 0 0.197 0 0.515 0.086 0.564 0.208 0.049 0.123 0 0.601-0.098 0.687-1.103 0.649-0.821 1.654-0.674 2.598s0.343 1.532 0.552 2.451c0.485-0.324 0.895-0.749 1.202-1.246s0.503-1.054 0.575-1.634c0.343-2.635 0.87-5.258 1.324-7.881 0.073-0.417 0.061-0.858 0.147-1.226 0.07-0.212 0.169-0.414 0.294-0.6 0.196 0.135 0.515 0.245 0.564 0.429 0.08 0.404 0.08 0.821 0 1.225-0.392 2.231-0.821 4.45-1.226 6.68-0.073 0.417-0.098 0.846-0.135 1.226l1.03 0.49c-0.137 0.348-0.322 0.674-0.551 0.969-0.557 0.493-0.915 1.173-1.006 1.912-0.318 2.108-0.735 4.179-1.14 6.263-0.102 0.641-0.355 1.249-0.736 1.775s-0.88 0.955-1.458 1.252c-1.863 1.022-3.714 2.059-5.553 3.114-0.282 0.147-0.649 0.404-0.698 0.661-0.466 2.574-2.293 4.094-4.205 5.565-1.045 0.752-2.04 1.571-2.979 2.451 0.915-0.29 1.811-0.633 2.685-1.029 0.579-0.376 1.136-0.785 1.667-1.226 0.219-0.112 0.471-0.142 0.711-0.086 0.122 0.343 0.306 0.809 0.159 1.067-0.233 0.358-0.578 0.629-0.98 0.772-1.851 0.797-3.678 1.544-5.566 2.304-1.507 0.625-3.027 1.226-4.535 1.875-0.385 0.176-0.73 0.426-1.017 0.736 1.336 0.466 2.525 1.36 4.045 0.907 2.316-0.653 4.426-1.89 6.129-3.591 2.451-2.452 5.062-4.83 7.612-7.244 0.684-0.628 1.242-1.381 1.643-2.219 0.713-1.194 1.487-2.352 2.316-3.468 1.042-1.741 2.011-3.543 2.979-5.332 0.27-0.503 0.405-1.066 0.637-1.593 0.113-0.17 0.245-0.326 0.393-0.466 0.171 0.171 0.453 0.331 0.466 0.515 0.033 0.343-0.035 0.688-0.197 0.992-1.078 2.047-2.194 4.094-3.309 6.129-0.785 1.458-1.508 2.966-2.452 4.351s-1.875 2.549-2.844 3.787c-2.061 2.807-4.667 5.171-7.661 6.95-1.039 0.658-2.116 1.255-3.224 1.789-0.959 0.353-1.948 0.62-2.954 0.797-0.405 0.11-0.846 0.123-1.226 0.208l-7.992 1.68-1.005 0.22c-0.074 0-0.123 0.111-0.393 0.343 0.694-0.04 1.39-0.04 2.084 0 0.336 0.098 0.652 0.256 0.932 0.466-0.282 0.233-0.527 0.601-0.834 0.662-3.677 0.65-7.465 1.226-11.204 1.875-0.821 0.135-1.642 0.295-2.451 0.442-0.621 0.128-1.264 0.11-1.877-0.054s-1.179-0.469-1.653-0.89c-1.949-1.63-3.948-3.199-5.97-4.756-0.711-0.551-1.508-0.98-2.268-1.458-0.1-0.061-0.191-0.135-0.27-0.221-1.821-2.394-3.874-4.603-6.129-6.594-2.316-2.268-4.719-4.449-7.085-6.668-0.371-0.37-0.857-0.602-1.378-0.66s-1.046 0.062-1.49 0.341c-0.443 0.264-0.911 0.481-1.398 0.65-0.305 0.014-0.61-0.037-0.894-0.147 0.159-0.294 0.22-0.711 0.465-0.87 0.626-0.392 1.337-0.662 1.986-1.018 1.042-0.551 1.14-0.747 0.871-1.912-0.564-2.451-1.226-4.792-1.741-7.207-0.725-3.374-0.808-6.854-0.245-10.259 0.111-0.508 0.356-0.978 0.711-1.36 0.188-0.21 0.31-0.472 0.349-0.751s-6e-3 -0.564-0.129-0.818c-0.514-1.397-0.968-2.819-1.446-4.241-0.093-0.212-0.135-0.443-0.123-0.674 0.086-0.297 0.201-0.584 0.344-0.858 0.196 0.233 0.49 0.429 0.576 0.699 0.478 1.471 0.907 2.954 1.36 4.437 0.081 0.188 0.18 0.369 0.295 0.539 1.311-1.704 3.113-2.966 3.027-5.332 0-0.784-0.294-1.556-0.306-2.341 0-1.164 0-2.329 0.159-3.493 0.16-1.164 0.307-2.133 0.441-3.211 0.135-1.079 0.797-0.883 1.251-0.748zm19.098 30.017c1.618 1.091 3.101 2.059 4.548 3.064 0.668 0.507 1.48 0.786 2.319 0.797 0.838 0.011 1.658-0.247 2.339-0.736 4.184-2.341 8.564-4.314 13.091-5.895 0.474-0.185 0.895-0.484 1.226-0.87 1.226-1.398 2.305-2.856 3.481-4.266 0.172-0.196 0.552-0.208 0.846-0.306 0.072 0.301 0.097 0.611 0.074 0.919-0.138 0.284-0.325 0.541-0.552 0.76l-1.924 2.451 0.171 0.197c1.226-0.38 2.452-0.748 3.592-1.153 0.099-0.043 0.186-0.111 0.252-0.196 0.066-0.086 0.11-0.187 0.128-0.294v-2.022c0-0.258 0.208-0.736 0.294-0.736 0.319 0 0.785 0.123 0.907 0.344 0.119 0.376 0.157 0.772 0.11 1.164v1.226c0.573-0.029 1.124-0.234 1.576-0.587s0.783-0.838 0.95-1.387c0.22-0.845-0.626-1.041-1.055-1.483 0-0.061-0.183-0.073-0.208-0.147-0.123-0.257-0.208-0.515-0.306-0.784 0.281-0.074 0.588-0.245 0.845-0.184 0.304 0.088 0.574 0.268 0.773 0.515 0.637 0.735 1.225 1.52 1.863 2.243 0.208 0.233 0.662 0.514 0.87 0.441 1.508-0.539 3.003-1.128 4.462-1.802 0.168-0.128 0.304-0.293 0.397-0.482 0.094-0.189 0.142-0.398 0.142-0.609-0.086-0.883-0.233-1.76-0.441-2.623-0.221-1.054-0.478-2.096-0.748-3.334-0.827 1.04-1.782 1.971-2.843 2.771-1.209 0.472-2.474 0.785-3.764 0.931 0.632 0.225 1.25 0.487 1.851 0.784 0.813 0.468 1.58 1.009 2.293 1.618 0.114 0.102 0.206 0.226 0.269 0.366 0.063 0.139 0.096 0.29 0.096 0.443s-0.033 0.305-0.096 0.444c-0.063 0.14-0.155 0.264-0.269 0.365-0.087 0.067-0.186 0.114-0.291 0.139-0.106 0.026-0.216 0.028-0.322 8e-3 -0.135 0-0.344-0.306-0.319-0.429 0.221-1.029-0.576-1.299-1.226-1.605-2.477-1.151-5.121-1.899-7.833-2.219-1.335-0.345-2.746-0.264-4.033 0.233-5.369 2.599-10.775 5.136-16.168 7.697-0.202 0.12-0.395 0.255-0.576 0.405 0.278 0.104 0.58 0.125 0.87 0.061 2.17-0.38 4.352-0.784 6.534-1.14 1.556-0.245 3.125-0.429 4.695-0.576 0.281 0 0.588 0.282 0.894 0.429-0.269 0.233-0.502 0.601-0.809 0.687-0.613 0.147-1.225 0.11-1.887 0.208-4.266 0.711-8.581 1.483-12.822 2.145-1.667 0.147-2.783 1.152-4.266 2.01zm23.621 12.465-0.171-0.38c-0.446 0.13-0.884 0.285-1.312 0.466-0.356 0.159-0.65 0.564-0.993 0.588-4.789 0.549-9.538 1.4-14.219 2.55-1.802 0.367-3.604 0.698-5.418 0.98-0.584 0.096-1.181 0.073-1.756-0.065-0.574-0.139-1.115-0.392-1.591-0.744-1.814-1.311-3.591-2.659-5.381-3.995-0.417-0.307-0.821-0.638-1.361-1.054-0.048 0.611-0.146 1.218-0.294 1.814-0.208 0.674 0 0.992 0.601 1.299 1.348 0.772 2.684 1.556 3.984 2.451 2.157 1.397 4.229 2.954 6.447 4.253 1.998 1.165 4.119 2.39 6.571 1.41 1.569-0.625 3.04-1.471 4.547-2.219 0.126-0.08 0.245-0.17 0.356-0.269-1.656-0.869-3.42-1.512-5.247-1.912-0.514-0.099-1.507 0.122-1.336-0.773 0.172-0.894 1.091-0.453 1.618-0.294 1.851 0.576 3.678 1.226 5.504 1.925 0.252 0.128 0.536 0.183 0.818 0.157s0.551-0.132 0.776-0.305c1.606-1.225 3.248-2.353 4.903-3.554 0.968-0.784 1.949-1.569 2.954-2.329zm-2.451-13.225-0.148-0.233c-0.527 0.196-1.078 0.331-1.581 0.564-3.346 1.569-6.717 3.101-10.015 4.768-0.77 0.477-1.662 0.722-2.568 0.707s-1.789-0.291-2.543-0.793c-1.447-0.931-2.844-1.936-4.315-2.831-1.052-0.64-2.145-1.21-3.273-1.704-0.145-0.087-0.306-0.143-0.474-0.165s-0.338-9e-3 -0.5 0.038c-0.162 0.048-0.313 0.128-0.443 0.236s-0.236 0.242-0.311 0.394c-0.111 0.171-0.454 0.159-0.626 0.306-0.485 0.395-0.925 0.843-1.311 1.336-0.074 0.11 0.368 0.637 0.637 0.907 0.27 0.27 0.711 0.503 1.03 0.784 1.109 0.961 2.496 1.541 3.959 1.655 3.275 0.519 6.519 1.21 9.721 2.072 1.63 0.392 3.175 1.041 4.903 0.294 0.763-0.308 1.444-0.791 1.986-1.41 0.502-0.551 1.017-1.091 1.495-1.654 1.422-1.765 2.93-3.506 4.401-5.271h-0.024zm-17.48-27.945-0.81 0.6c-1.36 1.042-2.66 2.206-4.106 3.126-3.187 2.034-6.46 3.934-9.684 5.92-0.427 0.231-0.783 0.574-1.03 0.992-0.784 1.692-1.532 3.408-2.206 5.136-1.324 3.432-2.525 6.901-3.898 10.308-0.987 2.323-1.695 4.754-2.108 7.244 0 0.257 0 0.527-0.086 0.968 0.674-0.257 1.164-0.49 1.679-0.637 0.376-0.085 0.716-0.284 0.975-0.569 0.258-0.285 0.423-0.643 0.472-1.025 0.563-2.549 1.127-5.111 1.802-7.623 0.635-2.733 1.454-5.419 2.451-8.041 0.6-1.578 1.519-3.016 2.7-4.222s2.599-2.156 4.165-2.789c1.336-0.527 2.66-1.066 4.02-1.52 0.331-0.088 0.64-0.242 0.909-0.453 0.27-0.211 0.494-0.473 0.66-0.772 0.54-0.944 1.226-1.827 1.753-2.758 0.822-1.25 1.545-2.513 2.366-3.885h-0.024zm-14.857 27.553c0.735 0.895 0.747 0.907 1.557 0.208 0.38-0.307 0.744-0.634 1.09-0.98 2.452-2.636 4.977-5.307 7.478-7.943 1.002-0.896 1.952-1.849 2.844-2.856 1.226-1.642 2.304-3.419 3.432-5.147 0.135-0.221 0.208-0.491 0.405-0.932-0.367 0.05-0.728 0.132-1.079 0.245-2.55 1.226-5.1 2.354-7.612 3.591-0.449 0.237-0.822 0.593-1.079 1.03-1.635 2.721-3.195 5.458-4.683 8.212-0.809 1.495-1.544 3.04-2.329 4.572h-0.024zm17.345-30.642-0.221-0.343c-0.32 0.077-0.636 0.176-0.944 0.294-2.304 0.876-4.555 1.887-6.742 3.027-4.045 2.452-7.955 5.013-11.902 7.563-0.458 0.356-0.869 0.768-1.226 1.225-0.343 0.368-0.257 0.662 0.184 0.871 0.184 0.085 0.417 0.122 0.539 0.257 0.169 0.225 0.313 0.467 0.429 0.723-0.269 0.11-0.551 0.331-0.796 0.294-0.427-0.098-0.838-0.251-1.226-0.453-1.779 4.277-2.731 8.851-2.807 13.482 0.185-0.204 0.331-0.441 0.429-0.698 1.581-4.033 3.199-8.041 4.719-12.098 0.422-1.126 1.236-2.061 2.292-2.635 3.8-2.337 7.58-4.719 11.339-7.146 1.545-0.98 3.015-2.059 4.499-3.125 0.539-0.405 0.993-0.858 1.458-1.263l-0.024 0.025zm-14.71 46.576c-0.266 0.586-0.336 1.243-0.199 1.872 0.137 0.63 0.473 1.198 0.959 1.621 1.447 1.226 2.869 2.451 4.327 3.542 1.459 1.091 2.905 2.231 4.376 3.334 0.276 0.206 0.594 0.348 0.931 0.416s0.685 0.06 1.018-0.024c0.732-0.133 1.477-0.174 2.219-0.122 1.679 0.222 3.387 0.032 4.977-0.552 2.304-1.029 4.683-1.9 7.024-2.856 0.373-0.169 0.737-0.357 1.091-0.564-0.969-0.416-1.729-0.809-2.538-1.066-0.403-0.134-0.841-0.107-1.225 0.074-1.3 0.649-2.538 1.47-3.862 2.071-1.038 0.56-2.193 0.869-3.372 0.903s-2.35-0.208-3.419-0.707c-3.079-1.478-5.996-3.273-8.703-5.356-1.128-0.919-2.378-1.741-3.592-2.599l-0.012 0.013zm8.936-17.662 0.147 0.318c0.941-0.228 1.863-0.527 2.759-0.894 5.05-2.452 10.063-5.026 15.077-7.551l1.949-1.005c-0.299-0.056-0.607-0.035-0.895 0.062-0.319 0.061-0.637 0.085-0.956 0.134l0.074-1.017c-0.662 0.282-1.226 0.196-0.981-0.858-1.422-0.061-2.746 0-4.045-0.196-0.651-0.085-1.312-7e-3 -1.924 0.229-0.613 0.235-1.156 0.62-1.582 1.119-2.893 2.954-5.847 5.835-8.777 8.752l-0.846 0.907zm34.139 12.759-0.196-0.184c-0.294 0.196-0.613 0.38-0.895 0.588-0.515 0.393-0.87 1.3-1.716 0.454 0 0-0.208 0-0.319 0.074-1.226 0.306-2.574 0.563-3.824 0.931-0.796 0.198-1.554 0.525-2.243 0.968-2.857 2.035-5.639 4.131-8.446 6.215-0.168 0.156-0.32 0.328-0.454 0.514 0.86 0.397 1.74 0.749 2.636 1.054 0.495 0.179 1.037 0.179 1.532 0 1.406-0.746 2.772-1.565 4.094-2.451 2.636-1.765 5.259-3.567 7.845-5.405 0.983-0.648 1.694-1.633 1.998-2.77l-0.012 0.012zm-17.823-48.255v-0.282c-1.692-0.552-3.371-1.115-5.075-1.618-0.125-0.012-0.252 4e-3 -0.371 0.046-0.118 0.043-0.226 0.111-0.315 0.199-0.503 0.527-1.03 0.515-1.226-0.184-0.025-0.211-0.128-0.405-0.289-0.544-0.162-0.138-0.369-0.211-0.582-0.203-0.643-0.119-1.304-0.094-1.936 0.073-2.354 1.018-4.658 2.17-6.987 3.285-0.062 0-0.086 0.135-0.184 0.331 0.919 0.699 1.826 1.434 2.782 2.108 0.427 0.344 0.943 0.559 1.487 0.622 0.545 0.063 1.096-0.029 1.59-0.266 0.797-0.368 1.692-0.527 2.525-0.834 0.427-0.204 0.837-0.442 1.226-0.711 0.805-0.518 1.659-0.958 2.55-1.311 1.059-0.251 2.137-0.415 3.224-0.49l1.581-0.221zm-15.911 16.608h0.404l7.698-1.385c0.198-0.01 0.391-0.065 0.564-0.159 1.3-1.018 2.575-2.06 4.033-3.224-1.348-0.833-2.549-1.655-3.824-2.341-0.777-0.406-1.6-0.714-2.452-0.919-0.359-0.115-0.748-0.096-1.095 0.052-0.346 0.149-0.628 0.417-0.793 0.757-0.478 0.845-1.103 1.605-1.618 2.451-0.993 1.508-1.924 3.101-2.917 4.768zm19.417-1.336 2.451 1.937c0.65 0.527 1.569 0.759 1.839 1.715 0 0.099 0.404 0.148 0.613 0.135 1.226 0 2.513-0.086 3.775-0.098 1.263-0.012 2.256 0 3.678 0-0.392-1.348-0.723-2.549-1.091-3.677 0-0.159-0.282-0.269-0.454-0.368-0.931-0.502-1.912-0.919-2.795-1.495-0.584-0.428-1.283-0.674-2.007-0.707-0.724-0.032-1.441 0.15-2.062 0.523-1.275 0.662-2.525 1.275-3.947 2.023v0.012zm9.941 27.394 5.295-0.417c0.071-8e-3 0.139-0.031 0.2-0.067s0.114-0.084 0.156-0.141c1.011-1.375 1.45-3.088 1.226-4.78-0.377-1.358-0.938-2.657-1.667-3.861-0.076-0.105-0.175-0.19-0.291-0.247-0.115-0.058-0.242-0.087-0.371-0.084-1.033 0.133-1.988 0.615-2.709 1.367-0.72 0.751-1.161 1.726-1.251 2.763-0.122 1.753-0.367 3.518-0.588 5.455v0.012zm-0.454-7.93-0.318-0.233c-1.643 0.539-3.31 1.054-4.904 1.642-0.474 0.179-0.895 0.474-1.225 0.858-2.047 2.452-4.046 4.817-6.056 7.244-0.127 0.182-0.238 0.374-0.331 0.576 0.172 0.01 0.344 0.01 0.515 0 1.655-0.343 3.322-0.637 4.903-1.066 0.684-0.157 1.306-0.511 1.79-1.018 1.802-2.157 3.506-4.375 5.197-6.618 0.224-0.437 0.369-0.91 0.429-1.398v0.013zm-45.624-17.086c2.917-2.807 6.435-4.548 9.622-6.754 3.276-2.122 6.739-3.939 10.346-5.43-1.569 0.393-3.101 0.858-4.609 1.385-1.986 0.648-3.937 1.397-5.847 2.243-0.559 0.323-1.193 0.493-1.839 0.493-0.645 0-1.279-0.17-1.838-0.493-0.083-0.074-0.181-0.128-0.288-0.158-0.106-0.03-0.219-0.035-0.327-0.015-0.109 0.02-0.212 0.065-0.301 0.131s-0.162 0.152-0.212 0.251c-1.434 1.789-2.844 3.603-4.376 5.307-0.981 0.944-0.662 1.9-0.331 3.027v0.013zm11.915 18.9c0.671-0.026 1.33-0.192 1.934-0.487 0.604-0.296 1.139-0.714 1.572-1.229 3.064-3.297 6.325-6.398 9.512-9.573 0.147-0.147 0.257-0.331 0.417-0.515-2.354-0.612-6.595 1.226-8.079 3.371-1.483 2.145-2.745 4.167-4.094 6.263-0.429 0.613-0.784 1.336-1.262 2.157v0.013zm17.774-13.483v0.086c3.408 0.343 6.828 0.711 10.248 1.005 0.82 0.04 1.643-0.014 2.451-0.159 0.564-0.086 1.054-0.27 1.398 0.404 0 0.135 0.465 0.209 0.674 0.16 1.557-0.368 3.138-0.687 4.658-1.226 1.427-0.539 2.693-1.434 3.677-2.599-0.609-0.178-1.24-0.277-1.875-0.294-0.589 0-1.226 0-1.287 0.846-0.01 0.104-0.055 0.201-0.129 0.275-0.073 0.074-0.169 0.121-0.273 0.133-0.103 0.011-0.208-0.013-0.295-0.07-0.088-0.056-0.153-0.141-0.186-0.24-0.282-0.809-0.821-0.625-1.385-0.515-5.003 1.144-10.106 1.797-15.237 1.949-0.76 0.086-1.606 0.221-2.439 0.282v-0.037zm-19.613 2.305-0.184-0.16c-1.226 0.748-2.451 1.41-3.677 2.268-0.792 0.595-1.473 1.325-2.011 2.157-1.152 2.09-1.888 4.383-2.169 6.753-0.238 1.214-0.389 2.443-0.454 3.677 0 0.405 0.319 0.846 0.54 1.373l1.667-1.753c0.956-0.968 0.968-0.956 0-1.948l-0.246-0.245c-0.355-0.491-0.343-0.883 0.27-1.226 0.228-0.088 0.424-0.241 0.564-0.441 1.41-2.623 2.795-5.271 4.192-7.894 0.552-0.809 1.042-1.667 1.533-2.525l-0.025-0.036zm-16.401 18.115c0.116-0.178 0.223-0.362 0.318-0.551 1.211-3.192 1.966-6.538 2.244-9.941 0.404-3.15 0.931-6.287 1.532-9.413 0.316-1.278 0.726-2.532 1.226-3.751 0.331-0.956-0.601-0.943-1.005-1.323-0.405-0.38-0.626 0-0.883 0.318-0.804 1.057-1.235 2.35-1.226 3.677-0.441 4.008-0.748 8.041-1.226 12.061-0.294 2.782-0.208 5.626-1.225 8.31 0.024 0.147 0.134 0.319 0.245 0.613zm58.618 2.268c0.157 5e-3 0.315-0.016 0.466-0.062 1.912-1.103 3.836-2.194 5.712-3.346 0.397-0.278 0.687-0.685 0.821-1.152 0.478-2.035 0.858-4.081 1.226-6.128 0-0.086-0.074-0.184-0.135-0.319-0.118 0.057-0.229 0.127-0.331 0.208-2.321 2.623-4.633 5.242-6.938 7.857-0.621 0.851-0.929 1.89-0.87 2.942h0.049zm-33.869-41.171c-1.226-0.993-2.293-1.863-3.396-2.623-0.174-0.09-0.367-0.137-0.564-0.137-0.196 0-0.389 0.047-0.563 0.137-2.342 1.655-4.634 3.358-6.926 5.087-0.601 0.453-0.527 1.017 0.184 1.225 0.426 0.141 0.885 0.141 1.311 0 2.329-0.845 4.658-1.765 6.987-2.647 0.871-0.356 1.814-0.662 2.918-1.042h0.049zm16.033-3.751c-0.171 0.074-0.441 0.197-0.711 0.344-0.276 0.213-0.577 0.394-0.895 0.539-2.194 0.564-4.4 1.091-6.594 1.63-0.247 0.083-0.489 0.181-0.724 0.294l0.086 0.343c1.851-0.416 3.678-0.858 5.529-1.225 0.506-0.092 1.025-0.092 1.532 0 0.208 0 0.441 0.343 0.49 0.564 0.049 0.22-0.282 0.355-0.49 0.478-0.209 0.122-0.331 0-0.503 0l-6.251 1.115c-0.172 0.054-0.334 0.137-0.478 0.245v0.233l10.542 2.01c-0.172-1.226-0.27-2.243-0.515-3.297s-0.662-2.022-1.067-3.273h0.049zm-28.769 50.364c0.882-1.949 0.686-2.893-0.662-4.033-0.189-0.13-0.366-0.278-0.527-0.441-1.557-1.949-4.009-1.704-6.044-2.451-0.098 0-0.269 0-0.404 0.085-0.638 0.245-1.3 0.466-1.912 0.773-0.389 0.257-0.75 0.553-1.079 0.882 3.812 1.373 7.563 2.464 10.579 5.185h0.049zm13.202 2.451c-0.074-0.159-0.074-0.196-0.086-0.208-1.324-0.907-2.734-1.716-3.261-3.396 0-0.147-0.294-0.245-0.466-0.343-2.868-1.52-5.736-3.003-8.58-4.559-0.711-0.392-1.091-0.196-1.471 0.466 0.3 0.283 0.619 0.545 0.956 0.784 0.19 0.069 0.398 0.069 0.588 0 0.258 0 0.638-0.27 0.723-0.184 0.151 0.249 0.255 0.523 0.307 0.809 0.135 0.356 0.171 0.821 0.429 1.03 2.17 1.716 4.388 3.395 6.607 5.062 1.238 1.066 2.685 0.87 4.205 0.588l0.049-0.049zm-26.159-13.581h0.417l1.348-17.367c-1.459 1.225-1.569 1.581-1.091 3.272 0.057 0.132 0.086 0.274 0.086 0.417-0.077 0.196-0.171 0.385-0.282 0.564-0.195-0.071-0.374-0.18-0.527-0.319-0.177-0.312-0.333-0.635-0.466-0.968h-0.27c-0.198 0.448-0.346 0.916-0.441 1.397-0.358 2.708-0.316 5.454 0.123 8.151 0.257 1.642 0.674 3.272 1.054 4.902l0.049-0.049zm48.125-28.362c-0.096-0.111-0.199-0.218-0.306-0.318-1.104-0.76-2.195-1.533-3.322-2.243-0.154-0.097-0.327-0.158-0.508-0.179-0.18-0.021-0.362-2e-3 -0.534 0.056-1.569 0.797-3.102 1.667-4.83 2.611 0.856 0.541 1.675 1.139 2.452 1.789 1.042 1.017 2.034 1.299 3.236 0.282 0.406-0.273 0.842-0.499 1.299-0.674l2.513-1.324zm-26.968 7.256c-4.217 0.196-10.186 5.7-10.444 9.426 0.582-0.603 1.209-1.161 1.876-1.667 1.781-1.218 3.587-2.378 5.418-3.481 1.692-0.968 2.059-2.782 3.187-4.253l-0.037-0.025zm21.072 29.931v0.209c0.291 0.067 0.586 0.116 0.882 0.147h5.063c0.581-0.08 1.133-0.303 1.606-0.65 0.651-0.473 1.179-1.097 1.537-1.819 0.359-0.721 0.538-1.518 0.522-2.324 0-0.478-0.147-0.686-0.576-0.576-0.774 0.142-1.524 0.389-2.231 0.736-1.679 0.993-3.273 2.108-4.903 3.162-0.552 0.392-1.214 0.76-1.863 1.14l-0.037-0.025zm22.297-18.262c-1.458 0.576-2.746 1.103-4.069 1.581-0.993 0.355-0.993 0.331-0.503 1.287 0.956 1.826 1.998 3.677 1.312 5.846 0 0 0 0.086 0.134 0.172 1.312-1.397 2.624-2.795 3.911-4.204 0.058-0.078 0.1-0.167 0.124-0.262 0.023-0.095 0.027-0.193 0.011-0.29-0.258-1.336-0.564-2.696-0.883-4.106l-0.037-0.024zm-14.244-31.182v-0.22c-0.109-0.084-0.229-0.154-0.355-0.209-3.721-1.582-7.675-2.547-11.707-2.855-0.97-0.024-1.925 0.24-2.745 0.759 0.441 0.184 0.686 0.307 0.956 0.393 1.434 0.502 2.893 0.907 4.29 1.495 1.599 0.712 3.36 0.983 5.099 0.784h1.116l3.346-0.147zm-41.395 3.898c-2.033 2.463-3.61 5.269-4.658 8.286-0.442 1.215-0.561 2.524-0.343 3.799 0.125 0.37 0.293 0.724 0.502 1.054h0.343c0.389-0.642 0.725-1.314 1.006-2.01 0.318-0.907 0.367-1.912 0.735-2.794 0.907-2.231 1.925-4.413 2.93-6.607 0.082-0.144 0.135-0.304 0.153-0.47 0.019-0.165 4e-3 -0.333-0.044-0.492-0.048-0.16-0.129-0.308-0.236-0.435-0.107-0.128-0.239-0.232-0.388-0.306v-0.025zm25.374 18.385c0.484 0.156 0.997 0.203 1.501 0.137 0.505-0.065 0.988-0.242 1.417-0.517 0.906-0.6 1.91-1.04 2.966-1.299 1.704-0.38 3.457-0.502 5.185-0.735l1.165-0.172c-1.324-1.005-2.452-1.949-3.678-2.733-0.235-0.088-0.487-0.123-0.737-0.102s-0.492 0.098-0.709 0.224c-1.863 1.226-3.678 2.452-5.504 3.677-0.568 0.462-1.105 0.962-1.606 1.496v0.024zm-2.096-4.902 0.123 0.269h0.588c0.454 0 1.042-0.122 1.042 0.527 0 0.221-0.552 0.54-0.907 0.65-0.589 0.208-1.226 0.22-1.827 0.441-0.6 0.221-1.152 0.576-0.784 1.226 0.24 0.427 0.571 0.797 0.969 1.082 0.398 0.286 0.854 0.481 1.335 0.572 0.248-0.01 0.483-0.11 0.662-0.281 1.385-1.14 2.746-2.329 4.156-3.445 0.797-0.637 1.679-1.152 2.635-1.801-0.168-0.058-0.34-0.103-0.515-0.135-2.145 0.098-4.29 0.171-6.435 0.318-0.392 0.037-0.699 0.356-1.042 0.577zm-0.123 30.396c-3.338-1.324-6.852-2.15-10.431-2.451 1.115 1.336 2.341 2.451 3.469 3.738 0.289 0.381 0.702 0.649 1.167 0.758 0.465 0.11 0.954 0.054 1.383-0.157 1.507-0.637 2.941-1.262 4.412-1.863v-0.025zm-1.9-40.128c1.226 0.478 2.354 0.858 3.42 1.421 1.067 0.564 2.329 1.471 3.506 2.182 0.294 0.172 0.772 0.343 1.005 0.221 1.336-0.711 2.624-1.508 4.095-2.452-0.491-0.147-0.809-0.269-1.128-0.343l-9.807-1.973c-0.76-0.098-0.943 0.429-1.091 0.944zm-25.852 40.815-0.171 0.343 9.389 8.911c-0.159-0.797 0.258-1.839-0.931-2.207-0.147 0-0.233-0.502-0.221-0.759 0.04-0.4 0.135-0.792 0.282-1.165 0.044-0.088 0.07-0.185 0.076-0.283 7e-3 -0.099-6e-3 -0.197-0.038-0.291-0.032-0.093-0.082-0.18-0.148-0.254-0.065-0.073-0.144-0.134-0.233-0.177-1.287-0.809-2.452-1.753-3.849-2.451-1.398-0.699-2.771-1.103-4.156-1.667zm54.438-40.766v-0.368c-1.789-0.576-3.555-1.226-5.369-1.667-0.705-0.064-1.415 0.041-2.071 0.306-0.113 0.09-0.201 0.207-0.257 0.34-0.056 0.132-0.077 0.277-0.062 0.42 0.355 0.932 0.809 1.827 1.226 2.734 0.306 0.698 0.76 0.809 1.446 0.514 1.079-0.465 2.194-0.845 3.273-1.299 0.601-0.282 1.189-0.649 1.814-0.98zm-34.2 43.646c0.385 0.547 0.89 0.999 1.476 1.32 0.587 0.32 1.239 0.502 1.907 0.531 2.156 0.103 4.307-0.287 6.289-1.14l2.66-1.226-1.03-0.772c0.343-0.233 0.674-0.613 1.054-0.662 0.76-0.098 1.545 0 2.317 0 0.325-0.04 0.645-0.109 0.956-0.208-0.9-0.261-1.833-0.389-2.77-0.38-0.555-0.023-1.105 0.118-1.581 0.404-2.131 1.574-4.706 2.432-7.355 2.452-1.238-0.037-2.513-0.184-3.923-0.319zm33.832-7.256-0.147-0.282c-1.299 0.098-2.611 0.233-3.922 0.27-0.809 0-1.226 0.282-1.226 1.128-0.019 1.389-0.478 2.736-1.312 3.848 0 0 0 0.098 0.074 0.196 3.432-0.147 4.621-3.101 6.533-5.123v-0.037zm-15.052-42.58 0.809 4.768c0.282 1.679 0.294 1.691 1.814 0.98l3.101-1.507c-1.576-1.814-3.53-3.261-5.724-4.241zm-12.344 15.787-0.209-0.368c-2.255 0.515-4.511 1.079-6.791 1.52-2.059 0.392-2.12 2.329-3.076 3.603 0.16 0.047 0.33 0.047 0.49 0 2.709-1.225 5.43-2.316 8.127-3.53 0.54-0.339 1.031-0.752 1.459-1.225zm24.761-2.586c0.355 1.581 0.674 3.088 1.066 4.571 0 0.209 0.442 0.393 0.711 0.442 1.128 0.196 2.256 0.343 3.396 0.49 0.234-6e-3 0.465-0.047 0.686-0.123-0.042-0.235-0.12-0.463-0.233-0.674-0.527-0.711-1.066-1.434-1.654-2.083-1.1-1.175-2.46-2.073-3.972-2.623zm-31.761 34.956 0.184-0.245c-1.336-1.336-2.66-2.672-4.02-3.971-0.132-0.079-0.28-0.127-0.433-0.14-0.153-0.012-0.307 0.01-0.45 0.066-0.711 0.368-1.152 0-1.655-0.417-0.499-0.405-1.104-0.658-1.742-0.73-0.639-0.072-1.285 0.041-1.862 0.326 3.123 2.073 6.471 3.788 9.978 5.111zm25.313-42.899c-1.348 0.625-2.451 1.14-3.677 1.692-0.13 0.117-0.209 0.279-0.221 0.453 0.564 0.466 1.14 1.226 1.716 1.226 0.699 0.031 1.382 0.22 1.998 0.551 0.34 0.213 0.713 0.367 1.104 0.454 0.389-0.019 0.765-0.141 1.091-0.356 0 0-0.074-0.49-0.184-0.735-0.405-0.919-0.822-1.826-1.226-2.721-0.135-0.245-0.429-0.417-0.601-0.588v0.024zm-28.794 26.217-0.086-0.098-6.447 6.497c0.956 1.103 0.98 1.078 1.801 0 0.444-0.478 0.928-0.917 1.447-1.312 0.256-0.172 0.487-0.378 0.686-0.613 0.895-1.471 1.741-2.99 2.599-4.498v0.024zm6.816-7.881c2.034-1.287 4.547-1.005 6.974-1.434-0.926-8e-3 -1.839-0.226-2.669-0.638s-1.556-1.007-2.124-1.74l-2.181 3.812zm24.258-4.326c-4.094 0.159-8.2 0.073-12.16 1.372 4.1 0.126 8.196-0.345 12.16-1.397v0.025zm3.457 4.768v0.196c0.809 0 1.63-0.135 2.452-0.111 0.759 0.045 1.517-0.121 2.189-0.477 0.672-0.357 1.234-0.891 1.623-1.545 0.194-0.209 0.374-0.43 0.539-0.662 0.135-0.27 0.343-0.735 0.233-0.882-0.355-0.442-0.735-0.209-1.042 0.183-0.306 0.393-0.674 1.018-1.14 1.226-1.373 0.674-2.807 1.226-4.229 1.777l-0.625 0.295zm-20.483-10.308 0.135 0.245 5.884-0.172 0.061-0.208c-0.907-0.638-1.814-1.226-2.734-1.888-0.075-0.035-0.156-0.053-0.239-0.053-0.082 0-0.164 0.018-0.239 0.053-0.907 0.601-1.924 1.312-2.868 1.998v0.025zm10.407 30.298c-0.13-0.047-0.267-0.072-0.405-0.073-1.949 0.453-3.91 0.907-5.859 1.409-0.282 0.062-0.515 0.344-0.87 0.589 2.844 0.662 5.479 0.086 7.134-1.949v0.024zm7.833-6.802-0.27-0.086-3.861 4.903 0.159 0.196c0.287-0.131 0.562-0.286 0.821-0.466 0.54-0.453 1.018-0.784 1.582 0 0.086 0.098 0.833 0 0.858-0.196 0.282-1.409 0.49-2.917 0.711-4.376v0.025zm-19.233 27.369v-0.306c-0.918-0.056-1.839-7e-3 -2.746 0.147-1.797 0.632-3.756 0.632-5.553 0-0.616-0.108-1.247-0.108-1.863 0 0.329 0.56 0.825 1.002 1.419 1.266 0.593 0.264 1.254 0.335 1.891 0.205l4.731-0.932 2.121-0.38zm-20.716-22.197c0.539-0.796 1.042-1.446 1.458-2.145 0.054-0.126 0.075-0.264 0.062-0.401s-0.059-0.269-0.135-0.383c-0.392-0.307-1.116-0.821-1.226-0.686-0.845 0.698-1.636 1.46-2.366 2.279l2.207 1.336zm9.426 20.776 0.111-0.27-7.049-5.896-0.343 0.282c0.251 0.53 0.577 1.022 0.968 1.459 1.594 1.299 3.249 2.525 4.904 3.75 0.449 0.259 0.921 0.476 1.409 0.65v0.025zm23.818-2.329v-0.331c-0.858-0.221-1.827-0.797-2.538-0.576-1.218 0.52-2.377 1.169-3.457 1.936 2.047 0.029 4.081-0.328 5.995-1.054v0.025zm-11.474-13.961c-2.017 0.257-3.962 0.911-5.724 1.925 2.077 0.041 4.103-0.649 5.724-1.949v0.024zm-26.784-4.412c0.969 0.368 1.925 0.784 2.918 1.103 0.413 0.024 0.827-0.021 1.225-0.135-1.9-1.753-2.598-1.875-4.143-0.993v0.025zm30.547 7.697 3.678-0.551c-0.582-0.342-1.263-0.476-1.931-0.38-0.668 0.095-1.284 0.415-1.747 0.907v0.024zm25.105-31.292 0.294 0.258 2.035-2.255-0.196-0.184c-0.76 0.698-1.729 1.176-2.133 2.181zm-48.493 22.602 2.059 0.208 0.074-0.183-1.508-1.104-0.625 1.079zm-7.772-0.184 1.055-0.392-0.466-1.005h-0.221l-0.368 1.397z" fill="#000"/>
<path d="m202.78 162.68c0.589-0.159 1.207-0.181 1.806-0.065 0.599 0.117 1.164 0.368 1.651 0.736 0.487 0.367 0.884 0.842 1.16 1.386s0.424 1.144 0.433 1.754c0.046 0.746-0.021 1.493-0.196 2.219-0.183 0.773-0.551 1.491-1.072 2.09-0.522 0.6-1.181 1.064-1.922 1.352-0.74 0.288-1.54 0.392-2.329 0.303-0.79-0.089-1.546-0.369-2.204-0.816-1.068-0.798-2.01-1.753-2.794-2.831-1.226-1.508-2.293-3.15-3.457-4.707-1.1-1.501-2.503-2.753-4.119-3.677-0.625-0.343-1.361-0.478-2.01-0.772-0.258-0.11-0.454-0.404-0.674-0.613 0.233-0.233 0.478-0.662 0.711-0.649 0.604 0.022 1.199 0.159 1.752 0.404 1.961 0.928 3.675 2.305 5.002 4.02 1.226 1.606 2.451 3.298 3.677 4.903 0.609 0.845 1.295 1.633 2.047 2.353 0.512 0.507 1.162 0.852 1.868 0.993s1.439 0.071 2.106-0.2c0.667-0.272 1.24-0.733 1.647-1.327s0.631-1.295 0.643-2.015c0.059-0.675-0.02-1.355-0.233-1.998-0.187-0.489-0.526-0.905-0.968-1.187-0.441-0.283-0.961-0.416-1.483-0.382-0.583-0.032-1.163 0.103-1.671 0.389-0.509 0.287-0.924 0.714-1.198 1.229-0.11 0.196-0.135 0.478-0.282 0.613-0.253 0.182-0.524 0.338-0.809 0.466-0.135-0.307-0.478-0.674-0.392-0.883 0.229-0.684 0.596-1.314 1.079-1.85 0.663-0.524 1.378-0.98 2.133-1.361l0.098 0.123z" fill="#000"/>
<path d="m195.82 172.4c-0.221 0.331-0.344 0.687-0.576 0.809-0.43 0.233-0.687-0.11-0.92-0.453-0.634-1.143-1.381-2.219-2.231-3.212-1.616-1.623-3.362-3.111-5.222-4.449-3.226-2.31-6.958-3.815-10.885-4.388-0.478-0.061-0.968-0.184-0.882-0.784 0.085-0.601 0.588-0.601 1.066-0.527 4.168 0.633 8.135 2.214 11.596 4.621 2.219 1.464 4.221 3.234 5.945 5.258 0.773 0.931 1.361 2.01 2.109 3.125z" fill="#000"/>
<path d="m175.76 253.38c-1.406 0.318-2.862 0.343-4.278 0.074-0.441-0.074-0.834-0.221-0.76-0.76 0.073-0.54 0.49-0.638 0.919-0.552 1.551 0.282 3.148 0.172 4.646-0.319 3.535-1.081 6.718-3.086 9.218-5.809 1.312-1.434 2.378-3.077 3.567-4.621 0.111-0.147 0.16-0.38 0.294-0.441 0.25-0.151 0.546-0.208 0.834-0.16 0.159 0 0.221 0.466 0.27 0.723 0.049 0.258-0.074 0.258-0.147 0.38-1.546 2.784-3.629 5.233-6.129 7.204-2.5 1.972-5.367 3.427-8.434 4.281z" fill="#000"/>
<path d="m309.2 280.17-60.604-28.191v-62.191c-1e-3 -0.072 0.017-0.144 0.051-0.208 0.035-0.064 0.085-0.118 0.146-0.158 0.062-0.039 0.132-0.062 0.205-0.066 0.072-5e-3 0.145 9e-3 0.211 0.04l60.334 28.081v62.509c-6e-3 0.037-0.021 0.073-0.043 0.103-0.022 0.031-0.05 0.056-0.083 0.074-0.034 0.018-0.07 0.028-0.108 0.029s-0.075-6e-3 -0.109-0.022z" fill="#fff" stroke="#000" stroke-miterlimit="10" stroke-width="1.06"/>
<path d="m370.49 251.95-60.714 28.289c-0.026 0.01-0.054 0.013-0.081 0.01-0.028-3e-3 -0.054-0.013-0.077-0.029s-0.042-0.037-0.055-0.061c-0.013-0.025-0.02-0.052-0.02-0.08v-62.583l60.224-28.056c0.078-0.038 0.164-0.055 0.25-0.05 0.087 5e-3 0.17 0.032 0.243 0.079s0.132 0.112 0.172 0.188c0.041 0.077 0.061 0.163 0.058 0.249v62.044z" fill="#fff" stroke="#000" stroke-miterlimit="10" stroke-width="1.06"/>
<path d="m309.54 217.47-60.555-28.191c-0.033-0.02-0.06-0.047-0.079-0.081-0.019-0.033-0.029-0.071-0.029-0.109s0.01-0.076 0.029-0.109c0.019-0.034 0.046-0.062 0.079-0.081l60.384-28.791 60.236 28.546c0.08 0.039 0.147 0.1 0.195 0.176 0.047 0.076 0.072 0.163 0.072 0.253 0 0.089-0.025 0.177-0.072 0.252-0.048 0.076-0.115 0.137-0.195 0.177l-60.065 27.958z" fill="#fff" stroke="#000" stroke-miterlimit="10" stroke-width="1.06"/>
<path d="m378.64 209.74-60.285 28.975-8.814-20.935 60.567-28.387 8.532 20.347z" fill="#fff" stroke="#000" stroke-miterlimit="10" stroke-width="1.06"/>
<path d="m299.58 236.83-61.143-27.467 10.333-20.236 60.861 28.068-10.051 19.635z" fill="#fff" stroke="#000" stroke-miterlimit="10" stroke-width="1.06"/>
<path d="m309.36 160.53 0.184 56.946" stroke="#000" stroke-miterlimit="10" stroke-width="1.06"/>
<path d="m115.41 183.35h-4.609v-55.953c0-0.611 0.243-1.197 0.675-1.629s1.018-0.675 1.629-0.675 1.198 0.243 1.63 0.675 0.675 1.018 0.675 1.629v55.953z" fill="#000"/>
<path d="m111.48 168.34c-1.937 0-5.565 0-8.323-2.782-3.053-3.101-4.4868-8.85-4.5726-18.484-0.0049-0.307 0.0519-0.613 0.167-0.898 0.1151-0.286 0.2863-0.545 0.5034-0.764 0.2171-0.218 0.4757-0.39 0.7602-0.507 0.285-0.117 0.591-0.175 0.898-0.172 0.601 4e-3 1.176 0.244 1.6 0.668 0.425 0.425 0.665 1 0.668 1.6 0.074 8.065 1.226 13.213 3.249 15.321 1.225 1.226 2.696 1.422 5.05 1.422v4.596z" fill="#000"/>
<path d="m115.13 157.68v-4.596c2.366 0 3.873-0.233 5.05-1.435 2.084-2.108 3.175-7.256 3.249-15.321 6e-3 -0.599 0.247-1.172 0.671-1.596s0.997-0.665 1.596-0.671c0.308-3e-3 0.614 0.055 0.898 0.172 0.285 0.116 0.544 0.289 0.761 0.507s0.388 0.478 0.503 0.763c0.116 0.286 0.172 0.591 0.167 0.899-0.073 9.646-1.507 15.382-4.572 18.483-2.758 2.795-6.374 2.795-8.323 2.795z" fill="#000"/>
<path d="m358.44 171.06h1.79v-21.78c0-0.238-0.094-0.465-0.262-0.633s-0.395-0.262-0.633-0.262c-0.237 0-0.465 0.094-0.632 0.262-0.168 0.168-0.263 0.395-0.263 0.633v21.78z" fill="#000"/>
<path d="m359.97 165.21c0.584 0.052 1.173-0.018 1.73-0.203 0.556-0.186 1.069-0.484 1.506-0.875 1.226-1.226 1.753-3.444 1.777-7.195 4e-3 -0.12-0.018-0.239-0.062-0.351-0.044-0.111-0.111-0.213-0.196-0.298s-0.186-0.151-0.298-0.196c-0.111-0.044-0.231-0.065-0.351-0.062-0.233 3e-3 -0.456 0.097-0.62 0.262-0.165 0.165-0.259 0.388-0.262 0.621 0 3.137-0.454 5.135-1.226 5.956-0.268 0.228-0.582 0.394-0.921 0.49-0.338 0.095-0.693 0.116-1.041 0.062l-0.036 1.789z" fill="#000"/>
<path d="m358.55 161.07v-1.728c-0.347 0.054-0.702 0.032-1.04-0.063-0.339-0.095-0.653-0.262-0.921-0.489-0.809-0.821-1.226-2.831-1.226-5.969-6e-3 -0.232-0.101-0.453-0.265-0.617s-0.385-0.259-0.617-0.266c-0.121-1e-3 -0.241 0.021-0.352 0.067-0.112 0.046-0.213 0.114-0.298 0.2-0.085 0.085-0.151 0.188-0.195 0.3-0.045 0.112-0.066 0.232-0.062 0.353 0 3.75 0.588 5.981 1.777 7.182 0.435 0.38 0.944 0.667 1.494 0.844s1.13 0.24 1.705 0.186z" fill="#000"/>
</svg>
